<?xml version="1.0" encoding="UTF-8"?>
<svg version="1.1" xmlns="http://www.w3.org/2000/svg" width="1717" height="640">
<path d="M0 0 C9.24 0 18.48 0 28 0 C28 1.32 28 2.64 28 4 C31.96 4 35.92 4 40 4 C40 5.32 40 6.64 40 8 C42.64 8 45.28 8 48 8 C48 9.32 48 10.64 48 12 C50.64 12 53.28 12 56 12 C56 13.32 56 14.64 56 16 C57.32 16 58.64 16 60 16 C60 17.32 60 18.64 60 20 C61.32 20 62.64 20 64 20 C64 22.64 64 25.28 64 28 C65.32 28 66.64 28 68 28 C68 29.32 68 30.64 68 32 C69.32 32 70.64 32 72 32 C72 34.64 72 37.28 72 40 C73.32 40 74.64 40 76 40 C76 41.32 76 42.64 76 44 C77.32 44 78.64 44 80 44 C80 42.68 80 41.36 80 40 C85.28 40 90.56 40 96 40 C96 38.68 96 37.36 96 36 C109.2 36 122.4 36 136 36 C136 37.32 136 38.64 136 40 C139.96 40 143.92 40 148 40 C148 41.32 148 42.64 148 44 C150.64 44 153.28 44 156 44 C156 45.32 156 46.64 156 48 C157.32 48 158.64 48 160 48 C160 49.32 160 50.64 160 52 C161.32 52 162.64 52 164 52 C164 53.32 164 54.64 164 56 C165.32 56 166.64 56 168 56 C168 57.32 168 58.64 168 60 C169.32 60 170.64 60 172 60 C172 61.32 172 62.64 172 64 C173.32 64 174.64 64 176 64 C176 66.64 176 69.28 176 72 C177.32 72 178.64 72 180 72 C180 78.6 180 85.2 180 92 C181.32 92 182.64 92 184 92 C184 97.28 184 102.56 184 108 C194.23 108 204.46 108 215 108 C215 109.32 215 110.64 215 112 C217.64 112 220.28 112 223 112 C223 113.32 223 114.64 223 116 C225.64 116 228.28 116 231 116 C231 117.32 231 118.64 231 120 C232.32 120 233.64 120 235 120 C235 121.32 235 122.64 235 124 C236.32 124 237.64 124 239 124 C239 125.32 239 126.64 239 128 C240.32 128 241.64 128 243 128 C243 129.32 243 130.64 243 132 C244.32 132 245.64 132 247 132 C247 133.32 247 134.64 247 136 C248.32 136 249.64 136 251 136 C251 137.32 251 138.64 251 140 C252.32 140 253.64 140 255 140 C255 141.32 255 142.64 255 144 C256.32 144 257.64 144 259 144 C259 145.32 259 146.64 259 148 C260.32 148 261.64 148 263 148 C263 149.32 263 150.64 263 152 C264.32 152 265.64 152 267 152 C267 153.32 267 154.64 267 156 C269.64 156 272.28 156 275 156 C275 157.32 275 158.64 275 160 C276.32 160 277.64 160 279 160 C279 158.68 279 157.36 279 156 C280.32 156 281.64 156 283 156 C283 150.72 283 145.44 283 140 C284.32 140 285.64 140 287 140 C287 136.04 287 132.08 287 128 C288.32 128 289.64 128 291 128 C291 124.04 291 120.08 291 116 C292.32 116 293.64 116 295 116 C295 110.72 295 105.44 295 100 C296.32 100 297.64 100 299 100 C299 94.72 299 89.44 299 84 C300.32 84 301.64 84 303 84 C303 80.04 303 76.08 303 72 C304.32 72 305.64 72 307 72 C307 69.36 307 66.72 307 64 C308.32 64 309.64 64 311 64 C311 60.04 311 56.08 311 52 C312.32 52 313.64 52 315 52 C315 49.36 315 46.72 315 44 C316.32 44 317.64 44 319 44 C319 41.36 319 38.72 319 36 C320.32 36 321.64 36 323 36 C323 34.68 323 33.36 323 32 C324.32 32 325.64 32 327 32 C327 29.36 327 26.72 327 24 C328.32 24 329.64 24 331 24 C331 22.68 331 21.36 331 20 C333.64 20 336.28 20 339 20 C339 18.68 339 17.36 339 16 C340.32 16 341.64 16 343 16 C343 14.68 343 13.36 343 12 C345.64 12 348.28 12 351 12 C351 10.68 351 9.36 351 8 C353.64 8 356.28 8 359 8 C359 6.68 359 5.36 359 4 C374.84 4 390.68 4 407 4 C407 5.32 407 6.64 407 8 C410.96 8 414.92 8 419 8 C419 9.32 419 10.64 419 12 C421.64 12 424.28 12 427 12 C427 13.32 427 14.64 427 16 C428.32 16 429.64 16 431 16 C431 17.32 431 18.64 431 20 C432.32 20 433.64 20 435 20 C435 21.32 435 22.64 435 24 C436.32 24 437.64 24 439 24 C439 25.32 439 26.64 439 28 C440.32 28 441.64 28 443 28 C443 30.64 443 33.28 443 36 C444.32 36 445.64 36 447 36 C447 41.28 447 46.56 447 52 C448.32 52 449.64 52 451 52 C451 65.2 451 78.4 451 92 C449.68 92 448.36 92 447 92 C447 95.96 447 99.92 447 104 C445.68 104 444.36 104 443 104 C443 107.96 443 111.92 443 116 C441.68 116 440.36 116 439 116 C439 119.96 439 123.92 439 128 C437.68 128 436.36 128 435 128 C435 129.32 435 130.64 435 132 C439.62 132 444.24 132 449 132 C449 133.32 449 134.64 449 136 C454.28 136 459.56 136 465 136 C465 137.32 465 138.64 465 140 C472.59 140 480.18 140 488 140 C488 138.68 488 137.36 488 136 C490.64 136 493.28 136 496 136 C496 137.32 496 138.64 496 140 C505.24 140 514.48 140 524 140 C524 138.68 524 137.36 524 136 C525.32 136 526.64 136 528 136 C528 134.68 528 133.36 528 132 C530.64 132 533.28 132 536 132 C536 130.68 536 129.36 536 128 C537.32 128 538.64 128 540 128 C540 126.68 540 125.36 540 124 C543.96 124 547.92 124 552 124 C552 122.68 552 121.36 552 120 C557.28 120 562.56 120 568 120 C568 118.68 568 117.36 568 116 C578.56 116 589.12 116 600 116 C600 117.32 600 118.64 600 120 C605.28 120 610.56 120 616 120 C616 121.32 616 122.64 616 124 C617.32 124 618.64 124 620 124 C620 125.32 620 126.64 620 128 C622.64 128 625.28 128 628 128 C628 129.32 628 130.64 628 132 C629.32 132 630.64 132 632 132 C632 133.32 632 134.64 632 136 C633.32 136 634.64 136 636 136 C636 137.32 636 138.64 636 140 C637.32 140 638.64 140 640 140 C640 141.32 640 142.64 640 144 C641.32 144 642.64 144 644 144 C644 145.32 644 146.64 644 148 C645.32 148 646.64 148 648 148 C648 149.32 648 150.64 648 152 C649.32 152 650.64 152 652 152 C652 154.64 652 157.28 652 160 C653.32 160 654.64 160 656 160 C656 161.32 656 162.64 656 164 C657.32 164 658.64 164 660 164 C660.79685193 166.81133679 661.1254624 169.30493328 661.12698364 172.22357178 C661.13121338 173.47660095 661.13121338 173.47660095 661.13552856 174.75494385 C661.13350433 175.66306824 661.1314801 176.57119263 661.12939453 177.50683594 C661.13114685 178.46992676 661.13289917 179.43301758 661.13470459 180.42529297 C661.13910838 183.61167194 661.13618934 186.79799545 661.1328125 189.984375 C661.13348618 192.20151785 661.13445675 194.41866063 661.13571167 196.63580322 C661.13718683 201.28618065 661.13504071 205.93653887 661.13037109 210.58691406 C661.12468722 216.53630994 661.12794545 222.48566058 661.13394356 228.43505478 C661.1375654 233.01621844 661.13640289 237.59737147 661.13381577 242.17853546 C661.1331503 244.3712998 661.1339616 246.56406511 661.13629532 248.75682831 C661.13884699 251.82977332 661.13494527 254.90264626 661.12939453 257.97558594 C661.13243088 259.32562714 661.13243088 259.32562714 661.13552856 260.70294189 C661.11824875 265.891083 660.74881243 270.86474204 660 276 C658.68 276 657.36 276 656 276 C656 277.32 656 278.64 656 280 C654.68 280 653.36 280 652 280 C652 281.32 652 282.64 652 284 C650.68 284 649.36 284 648 284 C648 285.32 648 286.64 648 288 C646.68 288 645.36 288 644 288 C644 289.32 644 290.64 644 292 C642.68 292 641.36 292 640 292 C640 293.32 640 294.64 640 296 C638.68 296 637.36 296 636 296 C636 297.32 636 298.64 636 300 C633.36 300 630.72 300 628 300 C628 301.32 628 302.64 628 304 C626.68 304 625.36 304 624 304 C624 305.32 624 306.64 624 308 C621.36 308 618.72 308 616 308 C616 309.32 616 310.64 616 312 C612.04 312 608.08 312 604 312 C604 313.32 604 314.64 604 316 C594.76 316 585.52 316 576 316 C576 317.32 576 318.64 576 320 C574.68 320 573.36 320 572 320 C572 318.68 572 317.36 572 316 C562.76 316 553.52 316 544 316 C544 314.68 544 313.36 544 312 C540.04 312 536.08 312 532 312 C532 313.32 532 314.64 532 316 C529.36 316 526.72 316 524 316 C524 317.32 524 318.64 524 320 C522.68 320 521.36 320 520 320 C520 321.32 520 322.64 520 324 C516.04 324 512.08 324 508 324 C508 325.32 508 326.64 508 328 C502.72 328 497.44 328 492 328 C492 329.32 492 330.64 492 332 C487.71 332 483.42 332 479 332 C479 333.32 479 334.64 479 336 C477.68 336 476.36 336 475 336 C475 337.32 475 338.64 475 340 C473.68 340 472.36 340 471 340 C471 341.32 471 342.64 471 344 C468.36 344 465.72 344 463 344 C463 345.32 463 346.64 463 348 C460.36 348 457.72 348 455 348 C455 349.32 455 350.64 455 352 C451.04 352 447.08 352 443 352 C443 353.32 443 354.64 443 356 C440.36 356 437.72 356 435 356 C435 357.32 435 358.64 435 360 C432.36 360 429.72 360 427 360 C427 361.32 427 362.64 427 364 C424.36 364 421.72 364 419 364 C419 365.32 419 366.64 419 368 C416.36 368 413.72 368 411 368 C411 369.32 411 370.64 411 372 C408.36 372 405.72 372 403 372 C403 373.32 403 374.64 403 376 C400.36 376 397.72 376 395 376 C395 377.32 395 378.64 395 380 C392.36 380 389.72 380 387 380 C387 381.32 387 382.64 387 384 C384.36 384 381.72 384 379 384 C379 385.32 379 386.64 379 388 C375.04 388 371.08 388 367 388 C367 389.32 367 390.64 367 392 C363.04 392 359.08 392 355 392 C355 393.32 355 394.64 355 396 C336.52 396 318.04 396 299 396 C299 394.68 299 393.36 299 392 C296.36 392 293.72 392 291 392 C291 390.68 291 389.36 291 388 C288.36 388 285.72 388 283 388 C283 386.68 283 385.36 283 384 C280.36 384 277.72 384 275 384 C275 382.68 275 381.36 275 380 C273.68 380 272.36 380 271 380 C271 378.68 271 377.36 271 376 C269.68 376 268.36 376 267 376 C267 374.68 267 373.36 267 372 C265.68 372 264.36 372 263 372 C263 370.68 263 369.36 263 368 C261.68 368 260.36 368 259 368 C259 365.36 259 362.72 259 360 C257.68 360 256.36 360 255 360 C255 357.36 255 354.72 255 352 C253.68 352 252.36 352 251 352 C251 349.36 251 346.72 251 344 C249.68 344 248.36 344 247 344 C247 338.72 247 333.44 247 328 C245.68 328 244.36 328 243 328 C243 329.32 243 330.64 243 332 C240.36 332 237.72 332 235 332 C235 333.32 235 334.64 235 336 C229.72 336 224.44 336 219 336 C219 337.32 219 338.64 219 340 C205.8 340 192.6 340 179 340 C179 338.68 179 337.36 179 336 C175.04 336 171.08 336 167 336 C167 334.68 167 333.36 167 332 C164.36 332 161.72 332 159 332 C159 330.68 159 329.36 159 328 C157.68 328 156.36 328 155 328 C155 326.68 155 325.36 155 324 C152.36 324 149.72 324 147 324 C147 322.68 147 321.36 147 320 C145.68 320 144.36 320 143 320 C143 317.36 143 314.72 143 312 C140.69 312 138.38 312 136 312 C136 313.32 136 314.64 136 316 C134.68 316 133.36 316 132 316 C132 325.24 132 334.48 132 344 C130.68 344 129.36 344 128 344 C128 346.64 128 349.28 128 352 C126.68 352 125.36 352 124 352 C124 353.32 124 354.64 124 356 C122.68 356 121.36 356 120 356 C120 358.64 120 361.28 120 364 C118.68 364 117.36 364 116 364 C116 365.32 116 366.64 116 368 C114.68 368 113.36 368 112 368 C112 369.32 112 370.64 112 372 C110.68 372 109.36 372 108 372 C108 373.32 108 374.64 108 376 C105.36 376 102.72 376 100 376 C100 377.32 100 378.64 100 380 C98.68 380 97.36 380 96 380 C96 381.32 96 382.64 96 384 C90.72 384 85.44 384 80 384 C80 385.32 80 386.64 80 388 C69.44 388 58.88 388 48 388 C48 386.68 48 385.36 48 384 C44.04 384 40.08 384 36 384 C36 382.68 36 381.36 36 380 C30.72 380 25.44 380 20 380 C20 381.32 20 382.64 20 384 C18.68 384 17.36 384 16 384 C16 385.32 16 386.64 16 388 C13.36 388 10.72 388 8 388 C8 389.32 8 390.64 8 392 C4.04 392 0.08 392 -4 392 C-4 393.32 -4 394.64 -4 396 C-18.52 396 -33.04 396 -48 396 C-48 394.68 -48 393.36 -48 392 C-51.96 392 -55.92 392 -60 392 C-60 390.68 -60 389.36 -60 388 C-65.28 388 -70.56 388 -76 388 C-76 386.68 -76 385.36 -76 384 C-79.96 384 -83.92 384 -88 384 C-88 385.32 -88 386.64 -88 388 C-90.64 388 -93.28 388 -96 388 C-96 389.32 -96 390.64 -96 392 C-98.64 392 -101.28 392 -104 392 C-104 393.32 -104 394.64 -104 396 C-106.64 396 -109.28 396 -112 396 C-112 397.32 -112 398.64 -112 400 C-117.28 400 -122.56 400 -128 400 C-128 401.32 -128 402.64 -128 404 C-137.24 404 -146.48 404 -156 404 C-156 402.68 -156 401.36 -156 400 C-161.28 400 -166.56 400 -172 400 C-172 398.68 -172 397.36 -172 396 C-174.64 396 -177.28 396 -180 396 C-180 394.68 -180 393.36 -180 392 C-181.32 392 -182.64 392 -184 392 C-184 390.68 -184 389.36 -184 388 C-186.64 388 -189.28 388 -192 388 C-192 385.36 -192 382.72 -192 380 C-193.32 380 -194.64 380 -196 380 C-196 378.68 -196 377.36 -196 376 C-197.32 376 -198.64 376 -200 376 C-200 374.68 -200 373.36 -200 372 C-201.32 372 -202.64 372 -204 372 C-204 368.04 -204 364.08 -204 360 C-205.32 360 -206.64 360 -208 360 C-208 352.08 -208 344.16 -208 336 C-209.32 336 -210.64 336 -212 336 C-212 332.04 -212 328.08 -212 324 C-210.68 324 -209.36 324 -208 324 C-208 316.08 -208 308.16 -208 300 C-210.64 300 -213.28 300 -216 300 C-216 301.32 -216 302.64 -216 304 C-219.96 304 -223.92 304 -228 304 C-228 305.32 -228 306.64 -228 308 C-253.08 308 -278.16 308 -304 308 C-304 310.64 -304 313.28 -304 316 C-305.32 316 -306.64 316 -308 316 C-308 321.28 -308 326.56 -308 332 C-309.32 332 -310.64 332 -312 332 C-312 335.96 -312 339.92 -312 344 C-313.32 344 -314.64 344 -316 344 C-316 347.96 -316 351.92 -316 356 C-317.32 356 -318.64 356 -320 356 C-320 361.28 -320 366.56 -320 372 C-321.32 372 -322.64 372 -324 372 C-324 374.64 -324 377.28 -324 380 C-325.32 380 -326.64 380 -328 380 C-328 383.96 -328 387.92 -328 392 C-329.32 392 -330.64 392 -332 392 C-332 394.64 -332 397.28 -332 400 C-333.32 400 -334.64 400 -336 400 C-336 402.64 -336 405.28 -336 408 C-337.32 408 -338.64 408 -340 408 C-340 409.32 -340 410.64 -340 412 C-341.32 412 -342.64 412 -344 412 C-344 414.64 -344 417.28 -344 420 C-345.32 420 -346.64 420 -348 420 C-348 421.32 -348 422.64 -348 424 C-349.32 424 -350.64 424 -352 424 C-352 425.32 -352 426.64 -352 428 C-353.32 428 -354.64 428 -356 428 C-356 429.32 -356 430.64 -356 432 C-357.32 432 -358.64 432 -360 432 C-360 433.32 -360 434.64 -360 436 C-361.32 436 -362.64 436 -364 436 C-364 437.32 -364 438.64 -364 440 C-365.32 440 -366.64 440 -368 440 C-368 441.32 -368 442.64 -368 444 C-370.64 444 -373.28 444 -376 444 C-376 445.32 -376 446.64 -376 448 C-377.32 448 -378.64 448 -380 448 C-380 449.32 -380 450.64 -380 452 C-383.96 452 -387.92 452 -392 452 C-392 453.32 -392 454.64 -392 456 C-399.92 456 -407.84 456 -416 456 C-416 457.32 -416 458.64 -416 460 C-419.96 460 -423.92 460 -428 460 C-428 458.68 -428 457.36 -428 456 C-434.6 456 -441.2 456 -448 456 C-448 454.68 -448 453.36 -448 452 C-451.96 452 -455.92 452 -460 452 C-460 450.68 -460 449.36 -460 448 C-462.64 448 -465.28 448 -468 448 C-468 446.68 -468 445.36 -468 444 C-469.32 444 -470.64 444 -472 444 C-472 442.68 -472 441.36 -472 440 C-473.32 440 -474.64 440 -476 440 C-476 438.68 -476 437.36 -476 436 C-477.32 436 -478.64 436 -480 436 C-480 434.68 -480 433.36 -480 432 C-481.32 432 -482.64 432 -484 432 C-484 430.68 -484 429.36 -484 428 C-485.32 428 -486.64 428 -488 428 C-488 425.36 -488 422.72 -488 420 C-489.32 420 -490.64 420 -492 420 C-492 417.36 -492 414.72 -492 412 C-493.32 412 -494.64 412 -496 412 C-496 405.4 -496 398.8 -496 392 C-497.32 392 -498.64 392 -500 392 C-500 388.04 -500 384.08 -500 380 C-501.32 380 -502.64 380 -504 380 C-504 372.08 -504 364.16 -504 356 C-502.68 356 -501.36 356 -500 356 C-500 349.4 -500 342.8 -500 336 C-498.68 336 -497.36 336 -496 336 C-496 328.08 -496 320.16 -496 312 C-498.64 312 -501.28 312 -504 312 C-504 310.68 -504 309.36 -504 308 C-511.92 308 -519.84 308 -528 308 C-528 309.32 -528 310.64 -528 312 C-531.96 312 -535.92 312 -540 312 C-540 313.32 -540 314.64 -540 316 C-542.64 316 -545.28 316 -548 316 C-548 317.32 -548 318.64 -548 320 C-550.64 320 -553.28 320 -556 320 C-556 321.32 -556 322.64 -556 324 C-558.64 324 -561.28 324 -564 324 C-564 325.32 -564 326.64 -564 328 C-565.32 328 -566.64 328 -568 328 C-568 329.32 -568 330.64 -568 332 C-569.32 332 -570.64 332 -572 332 C-572 333.32 -572 334.64 -572 336 C-574.64 336 -577.28 336 -580 336 C-580 337.32 -580 338.64 -580 340 C-583.96 340 -587.92 340 -592 340 C-592 341.32 -592 342.64 -592 344 C-607.84 344 -623.68 344 -640 344 C-640 342.68 -640 341.36 -640 340 C-642.64 340 -645.28 340 -648 340 C-648 338.68 -648 337.36 -648 336 C-650.64 336 -653.28 336 -656 336 C-656 334.68 -656 333.36 -656 332 C-656.66 332 -657.32 332 -658 332 C-658 333.32 -658 334.64 -658 336 C-675.16 336 -692.32 336 -710 336 C-710 334.68 -710 333.36 -710 332 C-712.64 332 -715.28 332 -718 332 C-718 330.68 -718 329.36 -718 328 C-720.64 328 -723.28 328 -726 328 C-726 326.68 -726 325.36 -726 324 C-727.32 324 -728.64 324 -730 324 C-730 322.68 -730 321.36 -730 320 C-731.32 320 -732.64 320 -734 320 C-734 318.68 -734 317.36 -734 316 C-735.32 316 -736.64 316 -738 316 C-738 314.68 -738 313.36 -738 312 C-739.32 312 -740.64 312 -742 312 C-742 310.68 -742 309.36 -742 308 C-742.66 308 -743.32 308 -744 308 C-744 309.32 -744 310.64 -744 312 C-747.96 312 -751.92 312 -756 312 C-756 313.32 -756 314.64 -756 316 C-758.64 316 -761.28 316 -764 316 C-764 317.32 -764 318.64 -764 320 C-766.64 320 -769.28 320 -772 320 C-772 321.32 -772 322.64 -772 324 C-774.64 324 -777.28 324 -780 324 C-780 325.32 -780 326.64 -780 328 C-781.32 328 -782.64 328 -784 328 C-784 329.32 -784 330.64 -784 332 C-785.32 332 -786.64 332 -788 332 C-788 333.32 -788 334.64 -788 336 C-790.64 336 -793.28 336 -796 336 C-796 337.32 -796 338.64 -796 340 C-799.96 340 -803.92 340 -808 340 C-808 341.32 -808 342.64 -808 344 C-816.91 344 -825.82 344 -835 344 C-835 345.32 -835 346.64 -835 348 C-836.32 348 -837.64 348 -839 348 C-839 350.64 -839 353.28 -839 356 C-840.32 356 -841.64 356 -843 356 C-843 357.32 -843 358.64 -843 360 C-844.32 360 -845.64 360 -847 360 C-847 361.32 -847 362.64 -847 364 C-848.32 364 -849.64 364 -851 364 C-851 365.32 -851 366.64 -851 368 C-852.32 368 -853.64 368 -855 368 C-855 369.32 -855 370.64 -855 372 C-856.32 372 -857.64 372 -859 372 C-859 373.32 -859 374.64 -859 376 C-860.32 376 -861.64 376 -863 376 C-863 377.32 -863 378.64 -863 380 C-864.32 380 -865.64 380 -867 380 C-867 381.32 -867 382.64 -867 384 C-868.32 384 -869.64 384 -871 384 C-871 385.32 -871 386.64 -871 388 C-872.32 388 -873.64 388 -875 388 C-875 389.32 -875 390.64 -875 392 C-877.64 392 -880.28 392 -883 392 C-883 393.32 -883 394.64 -883 396 C-884.32 396 -885.64 396 -887 396 C-887 397.32 -887 398.64 -887 400 C-889.64 400 -892.28 400 -895 400 C-895 401.32 -895 402.64 -895 404 C-897.64 404 -900.28 404 -903 404 C-903 405.32 -903 406.64 -903 408 C-905.64 408 -908.28 408 -911 408 C-911 409.32 -911 410.64 -911 412 C-914.96 412 -918.92 412 -923 412 C-923 413.32 -923 414.64 -923 416 C-929.6 416 -936.2 416 -943 416 C-943 417.32 -943 418.64 -943 420 C-952.24 420 -961.48 420 -971 420 C-971 418.68 -971 417.36 -971 416 C-977.6 416 -984.2 416 -991 416 C-991 414.68 -991 413.36 -991 412 C-993.64 412 -996.28 412 -999 412 C-999 410.68 -999 409.36 -999 408 C-1000.32 408 -1001.64 408 -1003 408 C-1003 406.68 -1003 405.36 -1003 404 C-1005.64 404 -1008.28 404 -1011 404 C-1011 402.68 -1011 401.36 -1011 400 C-1012.32 400 -1013.64 400 -1015 400 C-1015 398.68 -1015 397.36 -1015 396 C-1016.32 396 -1017.64 396 -1019 396 C-1019 393.36 -1019 390.72 -1019 388 C-1020.32 388 -1021.64 388 -1023 388 C-1023 386.68 -1023 385.36 -1023 384 C-1024.32 384 -1025.64 384 -1027 384 C-1027 381.36 -1027 378.72 -1027 376 C-1028.32 376 -1029.64 376 -1031 376 C-1031 354.88 -1031 333.76 -1031 312 C-1029.68 312 -1028.36 312 -1027 312 C-1027 308.04 -1027 304.08 -1027 300 C-1025.68 300 -1024.36 300 -1023 300 C-1023 297.36 -1023 294.72 -1023 292 C-1021.68 292 -1020.36 292 -1019 292 C-1019 290.68 -1019 289.36 -1019 288 C-1017.68 288 -1016.36 288 -1015 288 C-1015 285.36 -1015 282.72 -1015 280 C-1013.68 280 -1012.36 280 -1011 280 C-1011 278.68 -1011 277.36 -1011 276 C-1009.68 276 -1008.36 276 -1007 276 C-1007 273.36 -1007 270.72 -1007 268 C-1005.68 268 -1004.36 268 -1003 268 C-1003 264.04 -1003 260.08 -1003 256 C-1004.32 256 -1005.64 256 -1007 256 C-1007 254.68 -1007 253.36 -1007 252 C-1008.32 252 -1009.64 252 -1011 252 C-1011 250.68 -1011 249.36 -1011 248 C-1012.32 248 -1013.64 248 -1015 248 C-1015 246.68 -1015 245.36 -1015 244 C-1016.32 244 -1017.64 244 -1019 244 C-1019 242.68 -1019 241.36 -1019 240 C-1021.64 240 -1024.28 240 -1027 240 C-1027 237.36 -1027 234.72 -1027 232 C-1028.32 232 -1029.64 232 -1031 232 C-1031 230.68 -1031 229.36 -1031 228 C-1032.32 228 -1033.64 228 -1035 228 C-1035 226.68 -1035 225.36 -1035 224 C-1036.32 224 -1037.64 224 -1039 224 C-1039 221.36 -1039 218.72 -1039 216 C-1040.32 216 -1041.64 216 -1043 216 C-1043 213.36 -1043 210.72 -1043 208 C-1044.32 208 -1045.64 208 -1047 208 C-1047 200.08 -1047 192.16 -1047 184 C-1048.32 184 -1049.64 184 -1051 184 C-1051 174.76 -1051 165.52 -1051 156 C-1049.68 156 -1048.36 156 -1047 156 C-1047 148.08 -1047 140.16 -1047 132 C-1045.68 132 -1044.36 132 -1043 132 C-1043 129.36 -1043 126.72 -1043 124 C-1041.68 124 -1040.36 124 -1039 124 C-1039 121.36 -1039 118.72 -1039 116 C-1037.68 116 -1036.36 116 -1035 116 C-1035 113.36 -1035 110.72 -1035 108 C-1033.68 108 -1032.36 108 -1031 108 C-1031 106.68 -1031 105.36 -1031 104 C-1029.68 104 -1028.36 104 -1027 104 C-1027 101.36 -1027 98.72 -1027 96 C-1025.68 96 -1024.36 96 -1023 96 C-1023 94.68 -1023 93.36 -1023 92 C-1021.68 92 -1020.36 92 -1019 92 C-1019 90.68 -1019 89.36 -1019 88 C-1017.68 88 -1016.36 88 -1015 88 C-1015 86.68 -1015 85.36 -1015 84 C-1013.68 84 -1012.36 84 -1011 84 C-1011 81.36 -1011 78.72 -1011 76 C-1008.36 76 -1005.72 76 -1003 76 C-1003 74.68 -1003 73.36 -1003 72 C-1001.68 72 -1000.36 72 -999 72 C-999 70.68 -999 69.36 -999 68 C-997.68 68 -996.36 68 -995 68 C-995 66.68 -995 65.36 -995 64 C-993.68 64 -992.36 64 -991 64 C-991 62.68 -991 61.36 -991 60 C-989.68 60 -988.36 60 -987 60 C-987 58.68 -987 57.36 -987 56 C-984.36 56 -981.72 56 -979 56 C-979 54.68 -979 53.36 -979 52 C-977.68 52 -976.36 52 -975 52 C-975 50.68 -975 49.36 -975 48 C-972.36 48 -969.72 48 -967 48 C-967 46.68 -967 45.36 -967 44 C-965.68 44 -964.36 44 -963 44 C-963 42.68 -963 41.36 -963 40 C-960.36 40 -957.72 40 -955 40 C-955 38.68 -955 37.36 -955 36 C-953.68 36 -952.36 36 -951 36 C-951 34.68 -951 33.36 -951 32 C-948.36 32 -945.72 32 -943 32 C-943 30.68 -943 29.36 -943 28 C-940.36 28 -937.72 28 -935 28 C-935 26.68 -935 25.36 -935 24 C-932.36 24 -929.72 24 -927 24 C-927 22.68 -927 21.36 -927 20 C-923.04 20 -919.08 20 -915 20 C-915 18.68 -915 17.36 -915 16 C-912.36 16 -909.72 16 -907 16 C-907 14.68 -907 13.36 -907 12 C-901.72 12 -896.44 12 -891 12 C-891 10.68 -891 9.36 -891 8 C-880.44 8 -869.88 8 -859 8 C-859 6.68 -859 5.36 -859 4 C-856.36 4 -853.72 4 -851 4 C-851 5.32 -851 6.64 -851 8 C-841.76 8 -832.52 8 -823 8 C-823 9.32 -823 10.64 -823 12 C-820.36 12 -817.72 12 -815 12 C-815 13.32 -815 14.64 -815 16 C-812.36 16 -809.72 16 -807 16 C-807 17.32 -807 18.64 -807 20 C-803.37 20 -799.74 20 -796 20 C-796 18.68 -796 17.36 -796 16 C-781.48 16 -766.96 16 -752 16 C-752 17.32 -752 18.64 -752 20 C-748.04 20 -744.08 20 -740 20 C-740 21.32 -740 22.64 -740 24 C-737.36 24 -734.72 24 -732 24 C-732 25.32 -732 26.64 -732 28 C-730.68 28 -729.36 28 -728 28 C-728 29.32 -728 30.64 -728 32 C-726.68 32 -725.36 32 -724 32 C-724 33.32 -724 34.64 -724 36 C-722.68 36 -721.36 36 -720 36 C-720 37.32 -720 38.64 -720 40 C-718.68 40 -717.36 40 -716 40 C-716 41.32 -716 42.64 -716 44 C-714.68 44 -713.36 44 -712 44 C-712 46.64 -712 49.28 -712 52 C-710.68 52 -709.36 52 -708 52 C-708 58.6 -708 65.2 -708 72 C-707.34 72 -706.68 72 -706 72 C-706 69.36 -706 66.72 -706 64 C-704.68 64 -703.36 64 -702 64 C-702 61.36 -702 58.72 -702 56 C-700.68 56 -699.36 56 -698 56 C-698 53.36 -698 50.72 -698 48 C-696.68 48 -695.36 48 -694 48 C-694 46.68 -694 45.36 -694 44 C-692.68 44 -691.36 44 -690 44 C-690 41.36 -690 38.72 -690 36 C-687.36 36 -684.72 36 -682 36 C-682 34.68 -682 33.36 -682 32 C-680.68 32 -679.36 32 -678 32 C-678 30.68 -678 29.36 -678 28 C-675.36 28 -672.72 28 -670 28 C-670 26.68 -670 25.36 -670 24 C-667.36 24 -664.72 24 -662 24 C-662 22.68 -662 21.36 -662 20 C-658.04 20 -654.08 20 -650 20 C-650 18.68 -650 17.36 -650 16 C-636.8 16 -623.6 16 -610 16 C-610 17.32 -610 18.64 -610 20 C-606.04 20 -602.08 20 -598 20 C-598 21.32 -598 22.64 -598 24 C-596.02 24 -594.04 24 -592 24 C-592 22.68 -592 21.36 -592 20 C-588.04 20 -584.08 20 -580 20 C-580 18.68 -580 17.36 -580 16 C-565.48 16 -550.96 16 -536 16 C-536 17.32 -536 18.64 -536 20 C-532.04 20 -528.08 20 -524 20 C-524 21.32 -524 22.64 -524 24 C-521.36 24 -518.72 24 -516 24 C-516 25.32 -516 26.64 -516 28 C-514.68 28 -513.36 28 -512 28 C-512 29.32 -512 30.64 -512 32 C-510.68 32 -509.36 32 -508 32 C-508 33.32 -508 34.64 -508 36 C-506.68 36 -505.36 36 -504 36 C-504 37.32 -504 38.64 -504 40 C-502.68 40 -501.36 40 -500 40 C-500 41.32 -500 42.64 -500 44 C-498.68 44 -497.36 44 -496 44 C-496 46.64 -496 49.28 -496 52 C-494.68 52 -493.36 52 -492 52 C-492 59.92 -492 67.84 -492 76 C-490.68 76 -489.36 76 -488 76 C-488 81.28 -488 86.56 -488 92 C-489.32 92 -490.64 92 -492 92 C-492 101.24 -492 110.48 -492 120 C-493.32 120 -494.64 120 -496 120 C-496 122.64 -496 125.28 -496 128 C-492.04 128 -488.08 128 -484 128 C-484 129.32 -484 130.64 -484 132 C-480.04 132 -476.08 132 -472 132 C-472 133.32 -472 134.64 -472 136 C-455.5 136 -439 136 -422 136 C-422 137.32 -422 138.64 -422 140 C-421.34 140 -420.68 140 -420 140 C-420 138.68 -420 137.36 -420 136 C-418.68 136 -417.36 136 -416 136 C-416 134.68 -416 133.36 -416 132 C-414.68 132 -413.36 132 -412 132 C-412 130.68 -412 129.36 -412 128 C-409.36 128 -406.72 128 -404 128 C-404 126.68 -404 125.36 -404 124 C-400.04 124 -396.08 124 -392 124 C-392 122.68 -392 121.36 -392 120 C-386.72 120 -381.44 120 -376 120 C-376 118.68 -376 117.36 -376 116 C-366.76 116 -357.52 116 -348 116 C-348 117.32 -348 118.64 -348 120 C-344.04 120 -340.08 120 -336 120 C-336 121.32 -336 122.64 -336 124 C-333.36 124 -330.72 124 -328 124 C-328 125.32 -328 126.64 -328 128 C-325.36 128 -322.72 128 -320 128 C-320 129.32 -320 130.64 -320 132 C-310.43 132 -300.86 132 -291 132 C-291 133.32 -291 134.64 -291 136 C-283.41 136 -275.82 136 -268 136 C-268 134.68 -268 133.36 -268 132 C-260.08 132 -252.16 132 -244 132 C-244 133.32 -244 134.64 -244 136 C-238.72 136 -233.44 136 -228 136 C-228 137.32 -228 138.64 -228 140 C-224.04 140 -220.08 140 -216 140 C-216 141.32 -216 142.64 -216 144 C-213.36 144 -210.72 144 -208 144 C-208 145.32 -208 146.64 -208 148 C-205.36 148 -202.72 148 -200 148 C-200 149.32 -200 150.64 -200 152 C-197.36 152 -194.72 152 -192 152 C-192 153.32 -192 154.64 -192 156 C-190.68 156 -189.36 156 -188 156 C-188 154.68 -188 153.36 -188 152 C-186.68 152 -185.36 152 -184 152 C-184 150.68 -184 149.36 -184 148 C-182.68 148 -181.36 148 -180 148 C-180 146.68 -180 145.36 -180 144 C-178.68 144 -177.36 144 -176 144 C-176 141.36 -176 138.72 -176 136 C-174.68 136 -173.36 136 -172 136 C-172 133.36 -172 130.72 -172 128 C-170.68 128 -169.36 128 -168 128 C-168 122.72 -168 117.44 -168 112 C-166.68 112 -165.36 112 -164 112 C-164 106.72 -164 101.44 -164 96 C-162.68 96 -161.36 96 -160 96 C-160 89.4 -160 82.8 -160 76 C-158.68 76 -157.36 76 -156 76 C-156 73.36 -156 70.72 -156 68 C-154.68 68 -153.36 68 -152 68 C-152 65.36 -152 62.72 -152 60 C-150.68 60 -149.36 60 -148 60 C-148 58.68 -148 57.36 -148 56 C-146.68 56 -145.36 56 -144 56 C-144 54.68 -144 53.36 -144 52 C-142.68 52 -141.36 52 -140 52 C-140 50.68 -140 49.36 -140 48 C-138.68 48 -137.36 48 -136 48 C-136 46.68 -136 45.36 -136 44 C-134.68 44 -133.36 44 -132 44 C-132 42.68 -132 41.36 -132 40 C-130.68 40 -129.36 40 -128 40 C-128 38.68 -128 37.36 -128 36 C-125.36 36 -122.72 36 -120 36 C-120 34.68 -120 33.36 -120 32 C-117.36 32 -114.72 32 -112 32 C-112 30.68 -112 29.36 -112 28 C-97.48 28 -82.96 28 -68 28 C-68 29.32 -68 30.64 -68 32 C-64.04 32 -60.08 32 -56 32 C-56 30.68 -56 29.36 -56 28 C-52.04 28 -48.08 28 -44 28 C-44 26.68 -44 25.36 -44 24 C-42.68 24 -41.36 24 -40 24 C-40 22.68 -40 21.36 -40 20 C-38.68 20 -37.36 20 -36 20 C-36 18.68 -36 17.36 -36 16 C-33.36 16 -30.72 16 -28 16 C-28 14.68 -28 13.36 -28 12 C-26.68 12 -25.36 12 -24 12 C-24 10.68 -24 9.36 -24 8 C-20.04 8 -16.08 8 -12 8 C-12 6.68 -12 5.36 -12 4 C-8.04 4 -4.08 4 0 4 C0 2.68 0 1.36 0 0 Z " fill="#000000" transform="translate(1056,4)"/>
<path d="M0 0 C4.04546146 3.59502143 6.76912106 7.05185355 7.203125 12.59375 C7.22632813 14.03234375 7.22632813 14.03234375 7.25 15.5 C7.27578125 16.4590625 7.3015625 17.418125 7.328125 18.40625 C6.95389709 21.36443253 6.30935919 22.20113073 4 24 C2.35 23.34 0.7 22.68 -1 22 C-1.03867187 20.87851563 -1.03867187 20.87851563 -1.078125 19.734375 C-1.30853123 13.7002136 -1.30853123 13.7002136 -3.8125 8.375 C-10.20124246 4.35921902 -17.92196223 5.64623704 -24.94287109 7.12719727 C-39.93544611 10.54740989 -53.45622106 16.86406588 -67 24 C-67.65081543 24.33870117 -68.30163086 24.67740234 -68.97216797 25.02636719 C-84.52487017 33.18021106 -98.70623213 43.55376856 -112 55 C-112.84820312 55.72574219 -113.69640625 56.45148438 -114.5703125 57.19921875 C-126.95278254 68.04808012 -140.88526957 81.93889764 -143.4453125 98.9609375 C-143.68904966 104.89187509 -143.07361833 109.55013273 -139 114 C-130.5526935 120.34410427 -120.19096351 123.89674398 -110.5 127.875 C-107.23817527 129.22317766 -103.97814732 130.57565287 -100.71875 131.9296875 C-99.91619781 132.26260803 -99.11364563 132.59552856 -98.28677368 132.9385376 C-50.61499531 152.79454098 -50.61499531 152.79454098 -37 169 C-37 169.66 -37 170.32 -37 171 C-28.98326665 165.35908663 -21.07860517 159.58698895 -13.25 153.6875 C-9.83537305 151.12227297 -6.4182277 148.56042644 -3 146 C-1.71899414 145.03852051 -1.71899414 145.03852051 -0.41210938 144.05761719 C2.05103169 142.21544397 4.52384547 140.38712843 7 138.5625 C8.12100098 137.71981567 8.12100098 137.71981567 9.26464844 136.86010742 C9.96106445 136.35068604 10.65748047 135.84126465 11.375 135.31640625 C11.98085937 134.86724854 12.58671875 134.41809082 13.2109375 133.95532227 C15 133 15 133 19 133 C19.10517441 132.30383072 19.21034882 131.60766144 19.31871033 130.89039612 C20.62771508 122.60898344 22.4195278 114.48852034 24.37890625 106.33984375 C24.71322979 104.94194479 25.04753414 103.54404124 25.38182068 102.14613342 C26.08215048 99.22318711 26.78625255 96.30117691 27.49243164 93.37963867 C28.20068483 90.44678015 28.901463 87.51230744 29.5949707 84.57592773 C46.75377581 11.9627612 46.75377581 11.9627612 62 1 C65.4375 0 65.4375 0 68 0 C71.19128403 4.25504537 71.42616091 7.8599312 71 13 C70.48200322 15.96773396 69.69116949 18.80758294 68.8125 21.6875 C68.42481445 22.95968384 68.42481445 22.95968384 68.02929688 24.25756836 C65.51486724 32.07353133 62.3380545 39.56691707 59 47.0625 C58.52151611 48.14039795 58.04303223 49.2182959 57.55004883 50.32885742 C54.83984996 56.26278001 52.02003298 62.01504501 48.7644043 67.67431641 C38.69333891 85.49263321 33.68066025 102.99615579 29.33300781 122.89251709 C28.45803592 126.85543799 27.53787283 130.80784732 26.62304688 134.76171875 C23.54614725 148.13489087 20.63933324 161.5331158 18 175 C18.56847656 174.02160156 19.13695312 173.04320312 19.72265625 172.03515625 C32.74063569 149.83601587 32.74063569 149.83601587 41 146 C44.625 145.375 44.625 145.375 48 146 C52.73381916 149.78705533 54.96969935 153.54648058 55.81640625 159.4765625 C55.94080078 160.311875 56.06519531 161.1471875 56.19335938 162.0078125 C56.31517578 162.87148437 56.43699219 163.73515625 56.5625 164.625 C56.81083435 166.34678482 57.06200101 168.06816422 57.31640625 169.7890625 C57.42412354 170.54912598 57.53184082 171.30918945 57.64282227 172.09228516 C57.92392061 174.07698599 57.92392061 174.07698599 59 176 C67.80069848 174.94080089 73.70083367 166.63644079 78.875 160.0625 C81.79408351 156.22733975 84.49644407 152.27625512 87.12109375 148.234375 C87.6517041 147.41960693 88.18231445 146.60483887 88.72900391 145.76538086 C89.76690871 144.15763656 90.79186697 142.54144349 91.80224609 140.91625977 C93.88365522 137.66887936 95.35037759 135.40042611 98.66796875 133.35546875 C101 133 101 133 104 135 C103.58142454 139.01832446 103.05616579 141.86969537 101.4375 145.625 C99.16975196 151.19529373 99.75693405 157.09439762 100 163 C103.78282125 162.44764114 105.28943694 160.98210008 107.75 158.125 C108.44222656 157.32320312 109.13445312 156.52140625 109.84765625 155.6953125 C112.79520033 152.0041956 115.44251678 148.12923772 118.04296875 144.1875 C120 142 120 142 122.55078125 141.0625 C125 141 125 141 128 143 C128.328125 145.171875 128.328125 145.171875 128.25 147.75 C128.23453125 148.59046875 128.2190625 149.4309375 128.203125 150.296875 C128 153 128 153 127.48828125 155.7421875 C126.85380759 159.97539578 126.89320642 164.10237325 126.9375 168.375 C126.94426758 169.62216797 126.94426758 169.62216797 126.95117188 170.89453125 C126.96286836 172.92971897 126.98080065 174.96486923 127 177 C142.16079362 170.23457958 154.74760828 151.50851921 162 137 C163.12676806 133.56047798 163.12676806 133.56047798 163.88769531 129.93261719 C164.04123978 129.26295425 164.19478424 128.59329132 164.35298157 127.90333557 C164.68264065 126.45865587 165.00707383 125.01277543 165.32672882 123.5658493 C165.83958267 121.24502546 166.36656891 118.92778692 166.89691162 116.61090088 C168.02733904 111.66010517 169.13923698 106.7052379 170.25 101.75 C183.67703781 41.95265377 183.67703781 41.95265377 195 18 C195.52464844 16.87980469 196.04929687 15.75960937 196.58984375 14.60546875 C199.36794446 9.10085009 202.40554724 3.99329365 208 1 C210.8125 0.9375 210.8125 0.9375 213 2 C216.01251315 6.51876972 215.54491453 10.94577096 214.60693359 16.203125 C214.04383826 18.49886106 213.39215733 20.74365658 212.6875 23 C212.42243652 23.85682373 212.15737305 24.71364746 211.88427734 25.59643555 C207.40284941 39.48190263 201.47996595 53.04337232 194.23583984 65.70458984 C183.15061248 85.21502704 177.53032915 104.42561345 173.02081299 126.31561279 C172.13503457 130.56222118 171.19510478 134.79685591 170.26171875 139.03320312 C168.91694506 145.17395702 167.58924638 151.31785927 166.30664062 157.47192383 C166.05289673 158.68858231 165.79915283 159.90524078 165.53771973 161.1587677 C164.93801504 163.84557477 164.93801504 163.84557477 165 166 C165.72703125 164.76636719 165.72703125 164.76636719 166.46875 163.5078125 C179.5791876 141.67389142 179.5791876 141.67389142 189 137 C192.09648549 136.27673332 193.74750339 136.45791723 197 137 C199.96858157 139.20740681 200.82865791 140.48597373 202 144 C202.57048043 155.07793398 198.3543635 165.47625509 193 175 C205.73580433 166.31478432 217.15065194 156.9562802 227 145 C227.57556641 144.32219482 228.15113281 143.64438965 228.74414062 142.94604492 C233.98972174 136.20713657 235.91763882 129.34374445 237.6880188 121.17584229 C238.20335735 118.80195367 238.74631865 116.4358379 239.29663086 114.06982422 C240.10390003 110.59572101 240.90258747 107.11980489 241.69628906 103.64257812 C243.80071395 94.47977118 246.0397008 85.34985246 248.29898071 76.22418213 C249.03829967 73.22323096 249.76317185 70.21905936 250.48706055 67.21435547 C263.24859013 15.0336165 263.24859013 15.0336165 277 2 C279.5184271 0.50070293 280.6571648 -0.00816274 283.625 0.0625 C286 1 286 1 287.17578125 3.17578125 C292.3120768 20.77550486 275.5275685 47.99727013 268 63 C266.92087453 64.94827653 265.82710507 66.88851482 264.71875 68.8203125 C255.62091067 84.79707084 251.13480706 100.58192758 247.2421875 118.359375 C245.79937792 124.94761168 244.28817329 131.51993709 242.78125 138.09375 C239.81654101 151.05412864 236.89604623 164.02411982 234 177 C234.53109375 175.98172119 235.0621875 174.96344238 235.609375 173.91430664 C236.32269781 172.55864133 237.03625179 171.20309764 237.75 169.84765625 C238.09804688 169.17883423 238.44609375 168.51001221 238.8046875 167.82092285 C243.3218604 159.27018642 249.17611325 150.55369256 258 146 C261.6875 145.3125 261.6875 145.3125 265 146 C270.28870518 149.99591058 271.59829678 154.33871618 272.5625 160.7265625 C272.85474391 163.33066445 273.14640831 165.9348315 273.4375 168.5390625 C273.92214152 171.52095408 274.4494208 173.45446581 276 176 C292.63843097 172.25635303 303.12321729 149.37075285 311.58007812 136.20507812 C316.7224885 128.21913409 321.05469838 122.29686775 329 117 C335.42485341 115.91587731 340.0718157 116.97318572 345.40625 120.61328125 C347 122 347 122 349 125 C348.625 127.6875 348.625 127.6875 348 130 C345.875 130.8125 345.875 130.8125 343 131 C340.99651034 129.33752986 338.99665598 127.67067133 337 126 C334 125.16666667 334 125.16666667 331 126 C325.92506017 129.57075206 323.41865088 133.11849778 320.8125 138.6875 C320.30106445 139.74880127 320.30106445 139.74880127 319.77929688 140.83154297 C316.3080962 148.19189836 313.81156612 154.77957206 314 163 C322.65505901 154.0930742 329.75573412 144.05434124 337 134 C338.98 134.33 340.96 134.66 343 135 C343.85020434 137.55061302 344.19438227 139.3626126 344.39453125 141.9921875 C345.60935708 158.24461206 345.60935708 158.24461206 352 173 C354.99725679 173.48630988 356.51385058 173.28565714 359.140625 171.7421875 C365.97553099 165.69202997 370.43914431 158.80968441 375 151 C375.48339844 150.21238281 375.96679688 149.42476562 376.46484375 148.61328125 C380.21066063 141.94740265 381.98511441 134.56438334 383.94604492 127.22241211 C384.30339722 125.89222046 384.30339722 125.89222046 384.66796875 124.53515625 C384.98157349 123.33451538 384.98157349 123.33451538 385.30151367 122.10961914 C386 120 386 120 388 117 C392.875 117.875 392.875 117.875 394 119 C393.85476623 124.30661857 392.70381427 128.99504558 391 134 C390.56325755 136.66412893 390.27801792 139.31249344 390 142 C390.37511719 141.45730469 390.75023437 140.91460937 391.13671875 140.35546875 C394.77920316 135.26333059 397.47869556 131.59937097 403.9375 130.5 C408.11341329 131.18178176 410.46219813 132.71740845 413 136 C414.99989499 139.88074861 416.5009621 143.90390282 418 148 C418.89183369 150.37650479 419.7875862 152.75154313 420.6875 155.125 C421.28111328 156.73761719 421.28111328 156.73761719 421.88671875 158.3828125 C422.84933883 161.09860614 422.84933883 161.09860614 425 163 C428.39513241 162.90823966 429.83520079 162.13944549 432.4375 159.9375 C440.5660071 150.61945528 447.05667785 140.18909564 451.625 128.6875 C455.58696522 118.78916829 461.25428112 111.04743133 470.5 105.5 C475.9133737 104.41732526 479.78772985 105.29467918 484.4375 108 C487 110 487 110 488 111 C488.125 113.5 488.125 113.5 488 116 C487 117 487 117 484.75 117.25 C482 117 482 117 479.5 115.4375 C477.12845565 113.79749611 477.12845565 113.79749611 474.5625 114 C467.89366887 116.60247069 464.07706119 121.77706156 461 128 C456.8043537 137.77324137 454.6683439 147.55589591 453 158 C456.70989337 154.46770791 459.80877233 150.76323726 462.75 146.5625 C463.17539062 145.96211914 463.60078125 145.36173828 464.0390625 144.74316406 C467.55349281 139.73925996 470.8854157 134.624851 474.13183594 129.44360352 C475.62565113 127.06918358 477.00851381 124.99148619 479 123 C483.55555556 123.55555556 483.55555556 123.55555556 485 125 C484.81288154 134.32301253 483.30661109 143.60607453 481.9375 152.8125 C481.6580957 154.72772461 481.6580957 154.72772461 481.37304688 156.68164062 C480.91925733 159.78835368 480.46152207 162.89442795 480 166 C480.49177734 165.63350342 480.98355469 165.26700684 481.49023438 164.8894043 C491.92023597 157.12864058 502.41190332 149.50025174 513.18945312 142.22851562 C514.96371576 141.02462005 516.72510583 139.803796 518.484375 138.578125 C520.06992188 137.48757812 520.06992188 137.48757812 521.6875 136.375 C522.59886719 135.74335938 523.51023437 135.11171875 524.44921875 134.4609375 C527.06708968 132.96157498 528.99389944 132.21508726 532 132 C532.66 132.66 533.32 133.32 534 134 C533.6935269 138.82695133 532.91981635 143.39716086 531.9375 148.125 C530.72701081 154.49361851 529.0118104 165.02362079 532 171 C542.62835033 170.45495639 550.67886529 161.14865254 557.46826172 153.76953125 C560.65040007 150.09338545 563.48258099 146.15189699 566.25927734 142.16430664 C568.87922566 138.41093054 571.52166222 135.02840354 575 132 C579.19047619 132.19047619 579.19047619 132.19047619 581 134 C580.61239521 138.80629941 579.92578498 143.4094688 578.9375 148.125 C577.72701081 154.49361851 576.0118104 165.02362079 579 171 C589.62589005 170.45508256 597.66886355 161.15670775 604.45507812 153.77832031 C609.81840198 147.6047345 614.46941549 140.79587676 619 134 C621.5 133.6875 621.5 133.6875 624 134 C624.66 134.66 625.32 135.32 626 136 C625.94240849 141.24082743 622.42985002 144.91774877 619.375 148.875 C618.61123047 149.89787109 618.61123047 149.89787109 617.83203125 150.94140625 C614.22748379 155.68423186 610.27538311 159.86215908 606 164 C605.236875 164.804375 604.47375 165.60875 603.6875 166.4375 C596.57247595 173.2215927 589.87633143 179.33881429 579.75 180.3125 C576.92661819 179.99166116 575.41756574 179.43902722 573 178 C567.46095742 170.4607476 568.63455722 161.93304575 569 153 C568.45472656 153.61746094 567.90945313 154.23492187 567.34765625 154.87109375 C564.91831263 157.59943351 562.46579783 160.30456299 560 163 C559.26910156 163.79921875 558.53820312 164.5984375 557.78515625 165.421875 C550.70826548 172.84429208 542.87362714 179.87662612 532.16015625 180.19921875 C528.98829834 179.90669659 527.32540462 179.184471 525 177 C521.79926314 171.91602087 521.59585489 167.86702674 521.75 162.0625 C521.75773438 160.90331055 521.75773438 160.90331055 521.765625 159.72070312 C521.82863374 155.0619943 522.24115169 150.5959281 523 146 C514.2596692 151.90725806 505.62245603 157.93479922 497.125 164.1875 C496.36598389 164.74453613 495.60696777 165.30157227 494.82495117 165.87548828 C493.31625428 166.99128685 491.81935212 168.12320413 490.33447266 169.27050781 C488 171 488 171 485.33349609 172.61230469 C480.34610588 175.88871898 477.64281079 178.63473012 476.19178772 184.56112671 C475.60752859 187.5198642 475.13059129 190.4828007 474.71328735 193.46951294 C474.24730127 196.78303758 473.68171694 200.07745 473.12245178 203.376297 C472.83419116 205.08125822 472.55047498 206.78699378 472.27122498 208.49345398 C466.17509685 245.60702644 456.21812814 299.74627863 426 325 C421.16466039 328.25859843 416.68458532 328.86904632 411 328 C405.35333222 325.61102517 403.48096509 321.74599708 400.98046875 316.4375 C393.72475844 298.39939946 400.13978794 274.40274773 407.18359375 257.12890625 C413.19938686 243.11465019 420.93030274 230.23131708 430 218 C430.44988281 217.39317383 430.89976562 216.78634766 431.36328125 216.16113281 C439.89471143 204.7715506 449.4876067 194.46610951 459.5 184.375 C459.99234131 183.87790527 460.48468262 183.38081055 460.99194336 182.86865234 C462.98824218 180.88165787 464.81928098 179.10862032 467.2421875 177.65234375 C470.00946003 175.05110757 470.12376621 171.78994396 470.625 168.1875 C470.74270752 167.43863525 470.86041504 166.68977051 470.98168945 165.91821289 C471.33906127 163.61441927 471.67175153 161.308105 472 159 C472.20905868 157.58845613 472.41866698 156.17699352 472.62890625 154.765625 C473.10359547 151.51251005 473.56111072 148.25810747 474 145 C473.11248047 146.30324219 473.11248047 146.30324219 472.20703125 147.6328125 C471.40901132 148.79698274 470.61082532 149.96103916 469.8125 151.125 C469.42513672 151.69476563 469.03777344 152.26453125 468.63867188 152.8515625 C460.41981314 164.80626611 460.41981314 164.80626611 455 167 C451.375 167.0625 451.375 167.0625 448 166 C446.0625 162.9375 446.0625 162.9375 445 160 C444.34 160.70125 443.68 161.4025 443 162.125 C438.52671359 166.61110385 433.22080733 171.55792841 426.8125 172.4375 C421.63008015 171.84279608 419.23944906 170.01816278 416 166 C413.96668496 162.46480454 412.46812351 158.79984909 411 155 C410.54367187 153.8346875 410.08734375 152.669375 409.6171875 151.46875 C408.73910986 149.20080089 407.87103956 146.92893757 407.015625 144.65234375 C406.07842364 142.07534862 406.07842364 142.07534862 405 140 C397.5600192 142.9228496 394.57118194 151.21234563 391.125 157.875 C390.59269775 158.89625977 390.06039551 159.91751953 389.51196289 160.96972656 C385.93906478 167.91961261 382.82839692 174.88495312 380.18359375 182.234375 C379.06563606 184.84663258 378.2715236 186.32182953 376 188 C373.86254078 187.74853421 372.54074221 187.54074221 371 186 C370.6367694 180.92545485 370.97775889 175.98342543 372 171 C371.38125 171.68835938 371.38125 171.68835938 370.75 172.390625 C365.819146 177.62965737 361.10645813 181.3429667 353.875 182.5 C348.89449367 181.63382499 345.96017804 179.27595361 342.95703125 175.28515625 C340.92797293 171.87909229 339.84608318 168.88042972 338.8125 165.0625 C338.48894531 163.89847656 338.16539062 162.73445312 337.83203125 161.53515625 C337.00749319 158.03183727 336.45124532 154.56894029 336 151 C332.71582381 154.07891517 329.9424292 157.31043677 327.1875 160.875 C318.00127313 172.40958561 318.00127313 172.40958561 311.1875 173.75 C308 173 308 173 306.125 170.8125 C305.07265043 168.18162608 304.51295434 165.77461667 304 163 C303.31035156 163.85722656 302.62070312 164.71445313 301.91015625 165.59765625 C286.91778068 183.94729424 286.91778068 183.94729424 277.125 185.4375 C272.99741643 184.8596383 270.57813419 183.16359152 268 180 C265.57475827 174.40143202 264.26495489 169.00619098 263.3125 163 C263.18294922 162.22527344 263.05339844 161.45054687 262.91992188 160.65234375 C262.60609991 158.76941199 262.30200645 156.88486295 262 155 C252.39187218 157.99626286 247.17145972 170.01082948 242.6875 178.375 C237.29801271 188.66201211 233.04325182 199.39464447 228.88354492 210.22216797 C228.63864319 210.85595871 228.39374146 211.48974945 228.14141846 212.14274597 C227.47339669 213.87712851 226.81346546 215.61462098 226.15405273 217.35229492 C225 220 225 220 223 222 C220.375 221.625 220.375 221.625 218 221 C216.89870562 216.88053788 217.17773599 213.84314676 218.00390625 209.6796875 C218.2474585 208.43396973 218.49101074 207.18825195 218.74194336 205.90478516 C219.01517129 204.56146423 219.28869664 203.21820376 219.5625 201.875 C219.835915 200.49669046 220.10877657 199.11827103 220.38110352 197.73974609 C222.48885063 187.15793886 224.80076295 176.62289094 227.25805664 166.11669922 C227.50160889 165.0598291 227.74516113 164.00295898 227.99609375 162.9140625 C228.21450928 161.9854541 228.4329248 161.0568457 228.65795898 160.10009766 C228.77083252 159.40706543 228.88370605 158.7140332 229 158 C228.67 157.67 228.34 157.34 228 157 C227.28457031 157.75023437 226.56914062 158.50046875 225.83203125 159.2734375 C210.85606948 174.7532634 184.76587074 197.14061432 162.125 198.125 C161.42375 198.08375 160.7225 198.0425 160 198 C159.66226562 198.98742187 159.32453125 199.97484375 158.9765625 200.9921875 C158.52634467 202.28656377 158.07580716 203.58082887 157.625 204.875 C157.40328125 205.52597656 157.1815625 206.17695313 156.953125 206.84765625 C155.93037374 209.76550545 155.21443349 211.78556651 153 214 C150.375 213.625 150.375 213.625 148 213 C146.2974998 207.82714819 147.7486802 203.14369108 148.87109375 197.9921875 C149.0722731 197.02975128 149.27345245 196.06731506 149.48072815 195.07571411 C150.12381998 192.00679343 150.78004643 188.94087305 151.4375 185.875 C152.08903046 182.80154377 152.73780156 179.72753661 153.38356018 176.65286255 C153.78587219 174.74113138 154.19195453 172.83018902 154.60215759 170.9201355 C154.87727928 169.62331345 154.87727928 169.62331345 155.15795898 168.30029297 C155.32085922 167.54038055 155.48375946 166.78046814 155.65159607 165.99752808 C156.08591178 163.84538352 156.08591178 163.84538352 156 161 C155.43345703 161.78310547 155.43345703 161.78310547 154.85546875 162.58203125 C147.49716488 172.42182401 139.06323577 183.64051463 126.25 185.5625 C123 185 123 185 120.625 182.6875 C118.54119916 179.24121399 117.87430646 176.72278853 117.90234375 172.76953125 C117.90556641 171.96708984 117.90878906 171.16464844 117.91210938 170.33789062 C117.92048828 169.50451172 117.92886719 168.67113281 117.9375 167.8125 C117.94201172 166.96751953 117.94652344 166.12253906 117.95117188 165.25195312 C117.96294597 163.16793845 117.9808811 161.08396023 118 159 C117.09507812 160.03060547 117.09507812 160.03060547 116.171875 161.08203125 C115.37265625 161.98308594 114.5734375 162.88414062 113.75 163.8125 C112.96109375 164.70582031 112.1721875 165.59914062 111.359375 166.51953125 C106.44428773 171.68688293 106.44428773 171.68688293 103 172.43359375 C99.64588518 172.44014476 97.5841072 172.36309367 94.6875 170.5625 C92.31183518 166.95500898 91.1664848 163.13571884 90 159 C89.50693359 159.69222656 89.50693359 159.69222656 89.00390625 160.3984375 C72.64596016 182.82965896 72.64596016 182.82965896 63 185 C58.82715277 184.92548487 56.64011654 184.4655393 53.25 182 C47.20817329 173.94423105 47.01212342 163.70447751 46 154 C45.21625 154.495 44.4325 154.99 43.625 155.5 C41 157 41 157 39 157 C38.75121094 157.54011719 38.50242187 158.08023438 38.24609375 158.63671875 C36.7246945 161.52213113 34.90060707 164.11683122 33.0625 166.8125 C23.54710075 181.30665975 16.7207184 197.56137559 11.08007812 213.90209961 C10.74685547 214.81870361 10.41363281 215.73530762 10.0703125 216.6796875 C9.64903076 217.89760986 9.64903076 217.89760986 9.21923828 219.14013672 C8 221 8 221 5.49560547 221.89501953 C4.67205566 221.92966309 3.84850586 221.96430664 3 222 C1 220 1 220 0.77880859 216.39990234 C0.89351167 212.01913201 1.62467562 207.87757728 2.5390625 203.6015625 C2.78135086 202.42426071 2.78135086 202.42426071 3.02853394 201.22317505 C3.5526816 198.68870745 4.08851053 196.15688111 4.625 193.625 C4.98933888 191.87671229 5.35326848 190.12833923 5.71679688 188.37988281 C8.08273558 177.0608292 10.57614609 165.7751844 13.27197266 154.52978516 C13.50190918 153.5660498 13.7318457 152.60231445 13.96875 151.609375 C14.16919922 150.78405273 14.36964844 149.95873047 14.57617188 149.10839844 C15.09853831 146.86823518 15.09853831 146.86823518 15 144 C6.26796228 150.18222572 -2.435523 156.40691815 -10.99658203 162.82470703 C-14.63220944 165.54976462 -18.25440502 168.2051663 -22.1015625 170.625 C-25.45585599 172.79630802 -28.38547877 174.9319866 -31 178 C-31.70825481 181.53225167 -31.49847846 184.45342434 -31.15625 188.03515625 C-30.61726315 201.71194769 -37.31781881 215.41633711 -44 227 C-44.51022705 227.89428711 -44.51022705 227.89428711 -45.03076172 228.80664062 C-59.76295685 254.19780639 -84.25335944 276.33639435 -112.25 286.0625 C-117.97401468 287.49595822 -124.17843734 287.9689888 -130 287 C-132.68921554 285.18859202 -134.5436572 283.9126856 -136 281 C-137.56421322 271.06031597 -133.28112326 263.73558279 -127.76171875 255.76953125 C-119.61096463 244.69346069 -109.98806813 234.9166986 -100.3125 225.1875 C-99.61181396 224.48206055 -98.91112793 223.77662109 -98.18920898 223.04980469 C-93.62172355 218.49682262 -88.89878865 214.19271406 -84 210 C-82.91776702 209.06143047 -81.83572476 208.12264097 -80.75390625 207.18359375 C-68.75194103 196.83732918 -56.63214863 186.5730813 -44 177 C-47.65373736 166.20656157 -59.45294094 160.92226129 -69 156 C-69.74330566 155.61537598 -70.48661133 155.23075195 -71.25244141 154.83447266 C-86.22516854 147.19071055 -101.73000546 140.88219439 -117.33178711 134.65820312 C-143.40204671 124.20953606 -143.40204671 124.20953606 -150.9375 111.8125 C-154.2737581 99.84122095 -151.15079528 89.83799525 -145.49609375 79.16015625 C-141.3412549 72.18202931 -136.08448016 66.31284049 -130.46044922 60.51171875 C-129.03162214 59.03273225 -127.62660709 57.53381934 -126.22265625 56.03125 C-102.88274717 31.45760223 -35.76169321 -19.58703426 0 0 Z " fill="#F7F7F7" transform="translate(219,68)"/>
<path d="M0 0 C3.789727 3.92483313 6.89532252 8.17714121 9.9375 12.6875 C10.36289062 13.31720703 10.78828125 13.94691406 11.2265625 14.59570312 C13.76752832 18.49760694 14.95176767 21.35530302 16.5 26 C21.78 26 27.06 26 32.5 26 C32.5 31.61 32.5 37.22 32.5 43 C27.88 43 23.26 43 18.5 43 C18.5 68.41 18.5 93.82 18.5 120 C11.57 120 4.64 120 -2.5 120 C-2.5 94.59 -2.5 69.18 -2.5 43 C-16.36 43 -30.22 43 -44.5 43 C-44.5 47.29 -44.5 51.58 -44.5 56 C-42.52 56.66 -40.54 57.32 -38.5 58 C-29.38645898 63.39372836 -22.24717549 71.65993669 -19.5 82 C-18.65625951 92.0591399 -18.83368118 100.49130965 -25.125 108.6875 C-32.58775038 116.73700225 -43.69346422 119.96141625 -54.40234375 120.43359375 C-56.41392771 120.45691741 -58.42588347 120.45782099 -60.4375 120.4375 C-62.01736694 120.42614014 -62.01736694 120.42614014 -63.62915039 120.41455078 C-76.71542577 120.13683105 -86.79394798 116.40800527 -96.3125 107.3125 C-102.39486504 98.10206151 -104.1292109 88.27137842 -101.9921875 77.421875 C-99.54584877 69.15493722 -95.18238133 63.80221617 -87.8828125 59.28515625 C-80.6254944 55.37096337 -73.66632904 54.51685627 -65.5 54 C-65.5 50.37 -65.5 46.74 -65.5 43 C-83.32 43 -101.14 43 -119.5 43 C-119.5 68.41 -119.5 93.82 -119.5 120 C-126.43 120 -133.36 120 -140.5 120 C-140.5 94.59 -140.5 69.18 -140.5 43 C-147.43 43 -154.36 43 -161.5 43 C-161.17 43.99 -160.84 44.98 -160.5 46 C-159.72404385 55.78213569 -160.08634999 64.23377983 -166.1953125 72.21484375 C-170.89015944 77.31835146 -176.16418449 80.29948847 -182.5 83 C-174.74625168 92.63979521 -165.23764215 100.43801326 -155.5 108 C-156.92358391 112.54074179 -159.22132073 115.03973147 -162.625 118.3125 C-163.99011719 119.63701172 -163.99011719 119.63701172 -165.3828125 120.98828125 C-166.08148437 121.65214844 -166.78015625 122.31601562 -167.5 123 C-171.15799877 121.72268518 -173.57696225 120.31111965 -176.35546875 117.62109375 C-177.05542969 116.95158691 -177.75539063 116.28208008 -178.4765625 115.59228516 C-179.20617187 114.88120605 -179.93578125 114.17012695 -180.6875 113.4375 C-182.21134902 111.97433236 -183.73608355 110.51208637 -185.26171875 109.05078125 C-185.99310059 108.34775879 -186.72448242 107.64473633 -187.47802734 106.92041016 C-189.93272337 104.58901207 -192.45111692 102.35276395 -195 100.125 C-213.92689148 83.19720098 -213.92689148 83.19720098 -214.6328125 71.17578125 C-214.351173 66.56186352 -212.86138226 63.27887424 -209.4375 60.0625 C-204.33546719 58.21708388 -199.20300599 57.994534 -194.07421875 59.90234375 C-192.17226006 60.85163397 -190.32872136 61.91631327 -188.5 63 C-187.2934375 61.6078125 -187.2934375 61.6078125 -186.0625 60.1875 C-185.38380859 59.40439453 -185.38380859 59.40439453 -184.69140625 58.60546875 C-181.08297346 53.74295768 -182.5 49.4606682 -182.5 43 C-198.01 43 -213.52 43 -229.5 43 C-229.5 68.41 -229.5 93.82 -229.5 120 C-236.43 120 -243.36 120 -250.5 120 C-250.5 109.11 -250.5 98.22 -250.5 87 C-259.41 87 -268.32 87 -277.5 87 C-277.83 89.97 -278.16 92.94 -278.5 96 C-281.02639731 99.56667855 -282.63695965 100.73945952 -286.8125 102 C-293.76072866 102 -298.83792702 99.41679533 -303.89453125 94.73046875 C-308.85569342 89.38303605 -311.5 84.3502393 -311.5 77 C-309.37640449 71.43820225 -309.37640449 71.43820225 -306.5 70 C-304.19 70 -301.88 70 -299.5 70 C-299.5 61.09 -299.5 52.18 -299.5 43 C-304.78 43 -310.06 43 -315.5 43 C-315.5 37.39 -315.5 31.78 -315.5 26 C-233.99 25.67 -152.48 25.34 -68.5 25 C-69.49 21.7 -70.48 18.4 -71.5 15 C-72.20757798 6.91339446 -71.28974737 -0.31559078 -66.02734375 -6.8203125 C-47.16130444 -24.57133767 -16.74719078 -15.57400754 0 0 Z M-48.3125 6.1875 C-50.31736168 9.24755204 -50.62279648 12.43276237 -50.5 16 C-49.352187 21.41932367 -49.352187 21.41932367 -46.5 26 C-43.39748799 26.08874135 -40.3173188 26.11518455 -37.21484375 26.09765625 C-36.28402481 26.0962413 -35.35320587 26.09482635 -34.3941803 26.09336853 C-31.40858809 26.08775172 -28.42306971 26.0751964 -25.4375 26.0625 C-23.41862087 26.05748716 -21.39974057 26.05292388 -19.38085938 26.04882812 C-14.42054428 26.03777683 -9.46028468 26.02050095 -4.5 26 C-5.41471083 24.41976929 -6.33674189 22.84377482 -7.26171875 21.26953125 C-7.77436279 20.39143799 -8.28700684 19.51334473 -8.81518555 18.60864258 C-13.68792281 11.06405518 -20.82688917 5.05427137 -29.4921875 2.38671875 C-36.84821212 0.96989689 -42.04522544 2.0813546 -48.3125 6.1875 Z M-277.5 43 C-277.5 51.91 -277.5 60.82 -277.5 70 C-268.59 70 -259.68 70 -250.5 70 C-250.5 61.09 -250.5 52.18 -250.5 43 C-259.41 43 -268.32 43 -277.5 43 Z M-64.7890625 71.32421875 C-70.71571834 72.40449548 -74.86017878 74.54223542 -79.3125 78.6875 C-81.84848158 83.62599044 -81.86841734 88.42106855 -80.625 93.75 C-77.20983352 98.9731958 -72.8665907 101.25023526 -66.81640625 102.59765625 C-59.87989276 103.45365153 -52.4167496 103.49701705 -46.35546875 99.6328125 C-42.09118247 96.14148239 -40.70118019 93.97827191 -40.125 88.3125 C-40.22770366 83.23333716 -42.09615256 79.71256849 -45.5 76 C-50.07954369 72.40427463 -54.58356668 70.27383858 -60.4609375 70.70703125 C-61.90342753 70.91428556 -63.346161 71.11984874 -64.7890625 71.32421875 Z " fill="#FEFEFE" transform="translate(829.5,475)"/>
<path d="M0 0 C2.3125 0.9375 2.3125 0.9375 4.3125 2.9375 C5.59383126 9.61391023 3.93779908 16.16677158 2.19921875 22.58984375 C1.97807404 23.41592133 1.75692932 24.2419989 1.52908325 25.09310913 C-1.05148274 34.53841473 -4.12876043 43.8061466 -7.3125 53.0625 C-7.61541962 53.94882111 -7.91833923 54.83514221 -8.23043823 55.74832153 C-19.21117449 87.77669819 -19.21117449 87.77669819 -26.96875 101.14550781 C-31.67375079 109.46506469 -32.90662399 118.5192062 -34.5625 127.8125 C-34.90260919 129.66198115 -35.24336084 131.51134426 -35.5847168 133.3605957 C-44.53666186 181.39366311 -44.53666186 181.39366311 -49.6875 229.9375 C-48.3675 230.2675 -47.0475 230.5975 -45.6875 230.9375 C-45.22339843 234.83595317 -45.51134606 237.23572609 -47.8125 240.375 C-50.6875 242.9375 -50.6875 242.9375 -54 242.8125 C-54.886875 242.52375 -55.77375 242.235 -56.6875 241.9375 C-58.69846463 237.01522579 -58.86874186 232.75215919 -58.51171875 227.53125 C-58.46117844 226.70798218 -58.41063812 225.88471436 -58.35856628 225.03649902 C-57.62449003 214.43535804 -56.05739657 203.9427543 -54.5 193.4375 C-54.18785501 191.29047716 -53.87592727 189.14342272 -53.56420898 186.99633789 C-50.91868443 168.92236473 -47.93297913 150.91287721 -44.6875 132.9375 C-45.30496094 133.90429688 -45.92242188 134.87109375 -46.55859375 135.8671875 C-59.82773808 156.37380706 -59.82773808 156.37380706 -68.6875 160.9375 C-72.1875 161.4375 -72.1875 161.4375 -75.6875 160.9375 C-81.02391999 156.90553823 -82.28461245 152.65986875 -83.234375 146.2421875 C-83.38390625 145.15164062 -83.5334375 144.06109375 -83.6875 142.9375 C-84.08952637 143.35523682 -84.49155273 143.77297363 -84.90576172 144.20336914 C-105.96080296 165.97025699 -105.96080296 165.97025699 -116.37109375 167.2734375 C-122.32293859 167.35786083 -126.12079211 167.17005853 -130.6875 162.9375 C-136.69069761 155.60025847 -137.56147715 147.08728551 -136.6875 137.9375 C-133.72559595 119.07508515 -127.26074098 98.06844084 -112.6875 84.9375 C-109.23575247 82.88226101 -106.71881738 82.50863645 -102.6875 82.9375 C-100.8125 83.9375 -100.8125 83.9375 -99.6875 85.9375 C-98.83996466 93.08101214 -100.84647683 97.97045832 -104.99584961 103.7644043 C-106.4121928 105.53178779 -107.87561317 107.24009907 -109.375 108.9375 C-109.89956787 109.54851562 -110.42413574 110.15953125 -110.96459961 110.7890625 C-113.9943512 114.25321515 -117.07542116 117.14241052 -120.75 119.9375 C-127.1189678 125.32573906 -127.26660517 133.14905878 -127.95703125 141.00390625 C-128.18188967 146.99180257 -127.28869014 151.53502816 -124.6875 156.9375 C-121.3917345 158.58538275 -118.23641761 158.56054578 -114.6875 157.9375 C-98.745893 150.43893441 -86.75769655 133.77763235 -76.77246094 119.83837891 C-62.79791271 100.4104469 -62.79791271 100.4104469 -53.06640625 98.39453125 C-48.4408189 98.14022704 -46.35906933 98.41669113 -42.625 101.3125 C-40.6875 103.9375 -40.6875 103.9375 -39.6875 105.9375 C-37.49722617 97.90974858 -35.40339291 89.86857889 -33.4609375 81.77734375 C-13.68148255 -0.31817401 -13.68148255 -0.31817401 0 0 Z " fill="#F4F4F4" transform="translate(1173.6875,88.0625)"/>
<path d="M0 0 C2.4375 0.1875 2.4375 0.1875 3.4375 1.1875 C3.68617082 5.95179853 3.20085574 9.83079675 1.78515625 14.37109375 C1.42550781 15.53398926 1.06585937 16.69688477 0.6953125 17.89501953 C0.30085938 19.12591309 -0.09359375 20.35680664 -0.5 21.625 C-0.70157715 22.26177673 -0.9031543 22.89855347 -1.11083984 23.55462646 C-11.29262979 55.70569426 -23.93246808 87.84371771 -45.5625 114.1875 C-46.80193359 115.72857422 -46.80193359 115.72857422 -48.06640625 117.30078125 C-66.274615 139.61911169 -87.33735418 156.29317617 -114.5625 166.1875 C-115.614375 166.57164062 -116.66625 166.95578125 -117.75 167.3515625 C-120.5625 168.1875 -120.5625 168.1875 -124.5625 168.1875 C-123.48935547 169.66283203 -123.48935547 169.66283203 -122.39453125 171.16796875 C-112.35681196 185.10005714 -103.38814959 199.6060843 -94.7355957 214.43115234 C-75.39502461 250.19897309 -75.39502461 250.19897309 -43.5625 273.1875 C-37.90718091 273.76457338 -33.97405738 272.39194804 -28.89453125 270.16015625 C-26.76490456 269.27191999 -24.83878644 268.56034002 -22.5625 268.1875 C-20.75 269.375 -20.75 269.375 -19.5625 271.1875 C-19.82322452 273.78953073 -20.20156049 274.87566205 -22.19921875 276.6015625 C-30.49098168 281.49765108 -37.7209811 283.79670233 -47.3359375 281.53515625 C-54.15994651 279.30827376 -59.26613416 275.97548866 -64.5625 271.1875 C-65.35269531 270.47851562 -66.14289063 269.76953125 -66.95703125 269.0390625 C-82.28868554 254.50417135 -92.5930625 235.36897301 -103.19140625 217.32421875 C-113.39580842 199.76476424 -113.39580842 199.76476424 -124.5625 182.8125 C-125.03631104 182.14186523 -125.51012207 181.47123047 -125.99829102 180.78027344 C-128.03129892 177.99003334 -129.65967651 176.12271566 -132.5625 174.1875 C-142.19732464 216.53637056 -142.19732464 216.53637056 -151 259.0625 C-151.14688263 259.80761841 -151.29376526 260.55273682 -151.44509888 261.32043457 C-151.84434088 263.35554831 -152.23494453 265.39205411 -152.62109375 267.4296875 C-152.83048584 268.5316748 -153.03987793 269.63366211 -153.25561523 270.76904297 C-153.35688721 271.56713379 -153.45815918 272.36522461 -153.5625 273.1875 C-151.92170758 274.82829242 -149.78481235 274.78862342 -147.5625 275.1875 C-146.52832742 278.44634614 -146.47056483 279.93823915 -147.671875 283.1953125 C-148.21328125 284.22398437 -148.7546875 285.25265625 -149.3125 286.3125 C-149.84359375 287.34632813 -150.3746875 288.38015625 -150.921875 289.4453125 C-152.32672311 291.79341577 -153.43924643 293.49232175 -155.5625 295.1875 C-158.0625 295.625 -158.0625 295.625 -160.5625 295.1875 C-163.3689747 292.24626764 -163.95032055 290.2189755 -163.8671875 286.203125 C-163.68529805 280.01070904 -162.78519934 274.0263494 -161.6875 267.9375 C-161.36519409 266.11351685 -161.36519409 266.11351685 -161.03637695 264.25268555 C-155.35364542 232.68236362 -148.11676908 201.35606821 -140.5625 170.1875 C-141.65353027 170.21577881 -141.65353027 170.21577881 -142.76660156 170.24462891 C-152.47837094 170.39158119 -161.03358496 168.7700611 -168.30859375 161.828125 C-170.50143793 158.95898308 -170.75562405 156.72810763 -170.5625 153.1875 C-169.11199992 150.1546362 -167.94780757 148.69693569 -164.74609375 147.51953125 C-156.09500682 145.91039722 -147.03305598 149.41787306 -139.75 153.9375 C-138.1721875 155.05125 -138.1721875 155.05125 -136.5625 156.1875 C-136.44586502 155.07757187 -136.32923004 153.96764374 -136.20906067 152.82408142 C-135.57610288 147.7897459 -134.41986408 142.9267321 -133.2175293 138.00219727 C-132.86118912 136.5198484 -132.86118912 136.5198484 -132.49765015 135.0075531 C-131.71478586 131.7553302 -130.92576787 128.5046336 -130.13671875 125.25390625 C-129.58682911 122.97445545 -129.03734127 120.69490769 -128.48823547 118.41526794 C-127.04196629 112.41546211 -125.59054142 106.41691545 -124.13793945 100.41864014 C-122.38586955 93.17972993 -120.63979312 85.93937234 -118.89284229 78.69922543 C-117.53061636 73.05404954 -116.16753991 67.40908399 -114.80168152 61.76478577 C-114.54969907 60.72283019 -114.29771662 59.68087461 -114.03809834 58.60734463 C-113.55104598 56.59339299 -113.06365555 54.57952307 -112.57589245 52.56574345 C-111.47973638 48.03033633 -110.39619243 43.49279669 -109.34707642 38.94625854 C-109.06945701 37.74621012 -109.06945701 37.74621012 -108.78622913 36.5219183 C-108.44609538 35.04546509 -108.10908358 33.56828776 -107.77580547 32.09027195 C-106.6723479 27.2973479 -106.6723479 27.2973479 -105.5625 26.1875 C-103.56291636 26.14669217 -101.56204746 26.14495644 -99.5625 26.1875 C-98.43991343 31.04643858 -98.82132273 34.50418601 -100.00268555 39.32714844 C-100.16879994 40.01915124 -100.33491434 40.71115404 -100.50606251 41.42412663 C-101.05954599 43.7178447 -101.62933873 46.00718061 -102.19921875 48.296875 C-102.59538802 49.92477365 -102.99050753 51.55292807 -103.38464355 53.18132019 C-104.4418367 57.53724461 -105.51286957 61.88965619 -106.586483 66.24155807 C-107.69085109 70.72872604 -108.78216809 75.21906182 -109.87426758 79.70922852 C-111.40168448 85.98479775 -112.93274678 92.25945251 -114.46921825 98.53281116 C-117.68203446 111.65112522 -120.84223602 124.7815652 -123.9828186 137.9173584 C-125.18761061 142.954682 -126.39673124 147.99096576 -127.60546875 153.02734375 C-128.25790542 155.74737356 -128.91020238 158.46743684 -129.5625 161.1875 C-116.40345643 157.59909957 -116.40345643 157.59909957 -103.8125 152.4375 C-103.11624512 152.10097412 -102.41999023 151.76444824 -101.70263672 151.41772461 C-54.78161138 128.04316756 -28.60680287 77.61297834 -12.6875 30.125 C-9.91628682 21.72691576 -7.356984 13.32075863 -5.31640625 4.71484375 C-4.30838951 1.33563737 -3.58847317 0.26257121 0 0 Z " fill="#F8F8F8" transform="translate(1071.5625,49.8125)"/>
<path d="M0 0 C5.61 0 11.22 0 17 0 C16.37822134 4.97422929 15.80492176 9.27434884 14.58984375 14.03125 C14.18862305 15.61679687 14.18862305 15.61679687 13.77929688 17.234375 C13.50150391 18.31203125 13.22371094 19.3896875 12.9375 20.5 C12.65583984 21.60859375 12.37417969 22.7171875 12.08398438 23.859375 C11.39362359 26.574014 10.69740413 29.28716193 10 32 C16.93 32.495 16.93 32.495 24 33 C24.10183594 31.948125 24.20367187 30.89625 24.30859375 29.8125 C25.06412482 23.76825148 26.60463576 17.90587229 28.0625 12 C28.34416016 10.84371094 28.62582031 9.68742187 28.91601562 8.49609375 C29.60670627 5.66309146 30.30280809 2.83140936 31 0 C36.94 0 42.88 0 49 0 C48.02272585 4.21784379 47.04458705 8.43546727 46.06420898 12.65258789 C45.7310117 14.08703868 45.39832541 15.52160826 45.06616211 16.95629883 C44.58842352 19.0193583 44.10884436 21.08198251 43.62890625 23.14453125 C43.34088135 24.38565674 43.05285645 25.62678223 42.75610352 26.90551758 C42 30 42 30 41 33 C45.29 33 49.58 33 54 33 C56.08421576 37.16843151 53.02809965 43.80535343 52 48 C47.05 48 42.1 48 37 48 C36.88785156 49.1240625 36.77570313 50.248125 36.66015625 51.40625 C36.05476576 56.24937389 34.79754944 60.82173468 33.4375 65.5 C33.08655273 66.73363281 33.08655273 66.73363281 32.72851562 67.9921875 C32.15757928 69.99629058 31.57953295 71.99836591 31 74 C35.29 74 39.58 74 44 74 C43.54241844 79.71976954 43.15327084 83.6168229 41 89 C36.71 89.33 32.42 89.66 28 90 C27.50628906 92.07023438 27.01257813 94.14046875 26.50390625 96.2734375 C26.02459607 98.2758579 25.54444379 100.27807461 25.06420898 102.28027344 C24.73064449 103.67296608 24.39795724 105.06586914 24.06616211 106.45898438 C23.58937813 108.46019426 23.109455 110.46062877 22.62890625 112.4609375 C22.34088135 113.66540527 22.05285645 114.86987305 21.75610352 116.11083984 C21 119 21 119 20 121 C14.39 121 8.78 121 3 121 C4.57369041 110.12722987 7.24901571 99.62593931 10 89 C5.38 89 0.76 89 -4 89 C-4.226875 90.5675 -4.45375 92.135 -4.6875 93.75 C-6.20475715 102.96429162 -8.66132035 111.96662668 -11 121 C-16.94 121 -22.88 121 -29 121 C-28.02374093 116.76359642 -27.04596582 112.52760464 -26.06420898 108.29248047 C-25.73061399 106.85128518 -25.39792675 105.40987946 -25.06616211 103.96826172 C-24.58945733 101.89755307 -24.10950567 99.82762021 -23.62890625 97.7578125 C-23.34088135 96.5114502 -23.05285645 95.26508789 -22.75610352 93.98095703 C-22 91 -22 91 -21 89 C-25.62 89 -30.24 89 -35 89 C-33.25 78.5 -33.25 78.5 -31 74 C-26.71 74 -22.42 74 -18 74 C-17.61908203 72.31583984 -17.61908203 72.31583984 -17.23046875 70.59765625 C-15.47489332 62.9311302 -13.69217917 55.40349272 -11 48 C-15.62 48 -20.24 48 -25 48 C-23.125 36.375 -23.125 36.375 -22 33 C-17.38 33 -12.76 33 -8 33 C-7.75765625 31.87464844 -7.5153125 30.74929688 -7.265625 29.58984375 C-5.10168446 19.64311906 -2.69476628 9.81664858 0 0 Z M6 48 C4.99377258 51.58169045 3.99479988 55.16513557 3 58.75 C2.71382813 59.76578125 2.42765625 60.7815625 2.1328125 61.828125 C1.86210937 62.8078125 1.59140625 63.7875 1.3125 64.796875 C1.06113281 65.69760742 0.80976563 66.59833984 0.55078125 67.52636719 C-0.14489231 70.22836257 -0.14489231 70.22836257 0 74 C4.62 74 9.24 74 14 74 C15.00445564 70.23030189 16.003743 66.45936488 17 62.6875 C17.42925781 61.0797168 17.42925781 61.0797168 17.8671875 59.43945312 C18.13789063 58.41142578 18.40859375 57.38339844 18.6875 56.32421875 C18.93886719 55.37635498 19.19023437 54.42849121 19.44921875 53.4519043 C20.10958618 50.93099111 20.10958618 50.93099111 20 48 C15.38 48 10.76 48 6 48 Z " fill="#FEFEFE" transform="translate(455,474)"/>
<path d="M0 0 C2.89567355 4.34351033 2.65660821 7.90080857 2 13 C-1.01167684 23.20461376 -6.9365329 32.68939819 -12 42 C-4.77970882 41.5624066 -0.154867 38.32695029 5.77148438 34.41796875 C11.27567058 30.95989317 11.27567058 30.95989317 15.52734375 31.1953125 C16.34332031 31.46085937 17.15929688 31.72640625 18 32 C19.10138901 37.41668148 18.76113703 40.9964395 17.0859375 46.2421875 C16.65214376 47.64053207 16.2183888 49.03888867 15.78466797 50.43725586 C15.55406677 51.16169891 15.32346558 51.88614197 15.08587646 52.63253784 C11.49792571 63.95074037 8.20466062 75.28559338 5.875 86.9375 C5.67567871 87.90478027 5.47635742 88.87206055 5.27099609 89.86865234 C4.05024614 96.29477931 3.78654864 102.46759794 4 109 C21.94630516 102.22649183 34.732523 71.54008036 42.8046875 55.47265625 C43.47165649 54.15551636 43.47165649 54.15551636 44.15209961 52.81176758 C44.99013056 51.14159498 45.8121247 49.46324931 46.61547852 47.77612305 C49.36919285 42.27047825 49.36919285 42.27047825 52.66015625 40.859375 C55 41 55 41 57 43 C57.0700781 50.29813357 53.00893309 56.22326644 49.5625 62.4375 C48.92868408 63.59459473 48.29486816 64.75168945 47.6418457 65.94384766 C21.58749659 113.13750114 21.58749659 113.13750114 7 118 C0.76878613 118.56647399 0.76878613 118.56647399 -2.375 116.25 C-6.77351408 110.15974973 -5.63126524 101.48282492 -4.63378906 94.39941406 C-1.78484595 77.24060282 2.98887205 60.62842792 8 44 C7.18015625 44.42152344 6.3603125 44.84304687 5.515625 45.27734375 C4.43796875 45.82519531 3.3603125 46.37304688 2.25 46.9375 C1.18265625 47.48277344 0.1153125 48.02804688 -0.984375 48.58984375 C-5.26332556 50.59075198 -7.74012044 51.08332011 -12.37109375 50.4765625 C-14.7555613 50.35641606 -14.7555613 50.35641606 -17 51 C-19.74208769 53.72110827 -21.3204738 56.95485305 -23.0625 60.375 C-24.08337386 62.2216164 -25.10937945 64.06540558 -26.140625 65.90625 C-26.62853516 66.79183594 -27.11644531 67.67742187 -27.61914062 68.58984375 C-32.19979037 76.58492406 -38.4611503 83.64753834 -46.375 88.4375 C-50.46269355 89.31343433 -54.00018143 89.29322756 -58 88 C-65.55572366 82.69102236 -67.66783865 72.34957895 -69.25 63.8125 C-69.50999843 62.20992348 -69.76387554 60.6062677 -70 59 C-70.66 59 -71.32 59 -72 59 C-73.50542523 60.68006144 -73.50542523 60.68006144 -75.0625 62.875 C-84.9682508 75.97883387 -84.9682508 75.97883387 -91 80 C-94.5 80.375 -94.5 80.375 -98 80 C-101.07406517 76.96863018 -101.45705605 74.4799793 -101.5 70.25 C-101.11777048 54.78707842 -94.25001574 40.24746127 -84.02734375 28.875 C-79.32039336 24.52175109 -75.71304491 23.44858998 -69.43359375 23.64453125 C-65.83769392 24.16977504 -63.72895285 25.66089756 -61 28 C-60.195625 28.639375 -59.39125 29.27875 -58.5625 29.9375 C-57 32 -57 32 -57.25 34.75 C-57.4975 35.4925 -57.745 36.235 -58 37 C-60.125 37.8125 -60.125 37.8125 -63 38 C-65.00348966 36.33752986 -67.00334402 34.67067133 -69 33 C-73.0351418 32.15934546 -74.50308214 32.68942634 -78 34.875 C-86.1340537 42.52058572 -91.76138568 55.89069685 -92.1328125 66.95703125 C-92.08898438 67.96121094 -92.04515625 68.96539062 -92 70 C-87.79333099 65.6496249 -84.04421557 61.12607329 -80.52734375 56.20703125 C-79.91584473 55.35343018 -79.3043457 54.4998291 -78.67431641 53.62036133 C-77.44160051 51.88540988 -76.22098962 50.14178827 -75.01318359 48.3894043 C-74.43777832 47.58027588 -73.86237305 46.77114746 -73.26953125 45.9375 C-72.76010986 45.20402344 -72.25068848 44.47054687 -71.72583008 43.71484375 C-69.53743737 41.54038196 -68.05410954 41.16263942 -65 41 C-62.23661963 43.76338037 -62.48621166 45.82567091 -62.0625 49.6875 C-60.49634579 65.66385331 -60.49634579 65.66385331 -54 80 C-49.35097806 79.77321844 -46.41339224 78.40561592 -42.98828125 75.25390625 C-38.34039826 69.98508801 -34.6918482 63.95754739 -31 58 C-29.98873047 56.39318359 -29.98873047 56.39318359 -28.95703125 54.75390625 C-26.67285626 51.01501603 -26.67285626 51.01501603 -25 47 C-25.71183993 44.41043476 -25.71183993 44.41043476 -27 42 C-29.71429965 34.51772425 -28.85308829 28.3673497 -26 21 C-20.38279093 10.50824171 -13.32353965 -1.80658165 0 0 Z " fill="#F6F6F6" transform="translate(1251,161)"/>
<path d="M0 0 C1.9375 1.0625 1.9375 1.0625 3 3 C4.08147789 9.62405211 1.56942864 14.59596179 -2 20 C-5.47770266 24.20110768 -9.18068024 28.10964854 -13 32 C-13.72574219 32.7528125 -14.45148438 33.505625 -15.19921875 34.28125 C-19.63151303 38.81575651 -19.63151303 38.81575651 -22 40 C-25.30412106 49.3667285 -27.57969174 62.03360065 -23.5390625 71.37890625 C-22.23886715 73.84503918 -22.23886715 73.84503918 -21 75 C-14.6239777 75.92555162 -11.55019182 75.12433591 -6.3125 71.3125 C-4.5263806 69.894038 -2.75376299 68.45827718 -1 67 C-0.41089844 66.55011719 0.17820312 66.10023438 0.78515625 65.63671875 C7.60606593 60.34369284 12.75206774 53.12042308 18.125 46.4375 C18.62789551 45.81246582 19.13079102 45.18743164 19.64892578 44.54345703 C22.10555739 41.46438175 24.42949299 38.3741842 26.6171875 35.09765625 C29 32 29 32 31.03564453 31.23608398 C33 31 33 31 34.8125 32.125 C36 34 36 34 35.875 36.21484375 C34.71762619 39.89880592 32.60262671 42.50058665 30.1875 45.4375 C29.69830078 46.04368164 29.20910156 46.64986328 28.70507812 47.27441406 C27.14803598 49.1925238 25.57551263 51.09704503 24 53 C23.49936035 53.61182129 22.9987207 54.22364258 22.48291016 54.85400391 C-0.2828552 82.60280186 -0.2828552 82.60280186 -13.63671875 84.34375 C-19.20451625 84.62891248 -23.1263582 84.62807136 -27.5625 81 C-31.73333171 77.1251628 -33.71470926 72.07007341 -34.23413086 66.48046875 C-34.29364269 63.81354859 -34.26307379 61.16639845 -34.1875 58.5 C-34.17396484 57.5821875 -34.16042969 56.664375 -34.14648438 55.71875 C-34.11148097 53.47853197 -34.06238869 51.23959406 -34 49 C-34.99966797 49.433125 -34.99966797 49.433125 -36.01953125 49.875 C-43.40254403 52.8488569 -50.47128554 54.76127701 -58.29296875 52.26953125 C-62.67423387 50.2556289 -65.72737069 47.56139072 -69 44 C-69.66 43.67 -70.32 43.34 -71 43 C-71.1952124 43.52730713 -71.3904248 44.05461426 -71.59155273 44.59790039 C-77.45326762 60.25916531 -84.22921655 74.08049965 -95 87 C-95.42796875 87.56074219 -95.8559375 88.12148438 -96.296875 88.69921875 C-100.44723796 94.0488749 -104.8339473 97.93441816 -111.625 99.0625 C-114.90707946 99.25260341 -115.92626418 99.03922118 -118.9375 97.4375 C-123.80391014 91.68628802 -123.55317595 85.18303104 -123 78 C-121.83783052 68.92460808 -120.14101863 59.89346201 -118 51 C-118.76570313 52.01707031 -118.76570313 52.01707031 -119.546875 53.0546875 C-127.41226457 63.1235018 -137.91453735 75.11686375 -151.1875 76.875 C-154.78301007 77.22605768 -156.93203009 76.96562574 -160 75 C-165.3588259 67.45794873 -164.89704126 58.29610081 -163.63525391 49.43994141 C-163.17285694 46.72108657 -162.66468864 44.0170455 -162.125 41.3125 C-161.95137939 40.43916016 -161.77775879 39.56582031 -161.59887695 38.66601562 C-160.78360048 34.82499022 -160.21391293 32.32086939 -158 29 C-153.125 29.875 -153.125 29.875 -152 31 C-152.13829853 36.17023736 -153.0233683 41.25786649 -154.0625 46.3125 C-155.39038566 53.25912572 -156.26398475 61.20804574 -154 68 C-142.66916512 67.41893154 -133.97588851 56.75979964 -126.73681641 48.98339844 C-123.34995041 45.11568697 -120.35997487 40.95438546 -117.46337891 36.71118164 C-114.28450585 32.09483528 -114.28450585 32.09483528 -111 31 C-110.89042969 30.31292969 -110.78085938 29.62585938 -110.66796875 28.91796875 C-110.50941406 28.01691406 -110.35085938 27.11585938 -110.1875 26.1875 C-110.03667969 25.29417969 -109.88585938 24.40085938 -109.73046875 23.48046875 C-108.93733774 20.78721638 -108.26064205 19.64007364 -106 18 C-103.3125 18.3125 -103.3125 18.3125 -101 19 C-100.54974136 25.4095641 -102.19834528 30.57027429 -104.1875 36.625 C-106.68268104 44.50862926 -108.96841164 52.39003293 -110.875 60.4375 C-111.07762451 61.28199707 -111.28024902 62.12649414 -111.48901367 62.99658203 C-113.19516169 70.34693572 -114.14141201 77.42444689 -114.0625 85 C-114.05347656 86.134375 -114.04445313 87.26875 -114.03515625 88.4375 C-114.02355469 89.283125 -114.01195312 90.12875 -114 91 C-96.4263287 82.03384117 -86.18100204 60.26747372 -80.1875 42.1875 C-78.2965113 36.16955622 -76.56280266 30.11144781 -75 24 C-73.35 23.67 -71.7 23.34 -70 23 C-67.85393522 26.21909717 -66.47890075 29.37975523 -65.1875 33 C-63.05800848 38.51694521 -60.3420176 41.3289912 -55 44 C-46.65469662 45.31330471 -39.8914395 42.65828975 -33 38 C-29.93089587 34.71904621 -28.25320983 31.62221536 -26.6875 27.4375 C-21.88854939 15.54254011 -14.85348135 -1.04234957 0 0 Z " fill="#F6F6F6" transform="translate(1645,171)"/>
<path d="M0 0 C4.29 0 8.58 0 13 0 C13.90812285 2.72436854 14.20317962 4.67597076 14.37304688 7.50537109 C14.42980591 8.41837982 14.48656494 9.33138855 14.54504395 10.27206421 C14.63102844 11.75774399 14.63102844 11.75774399 14.71875 13.2734375 C14.78155151 14.30699371 14.84435303 15.34054993 14.90905762 16.40542603 C15.04202032 18.60610755 15.17302632 20.80690802 15.30224609 23.0078125 C15.49557995 26.2997391 15.69445828 29.59128937 15.89453125 32.8828125 C16.6998054 46.25081746 17.39855203 59.62132049 18 73 C18.90899797 69.62396291 19.1106513 66.67128503 19.10546875 63.1640625 C19.30434547 41.68102179 22.26272649 21.13216734 26 0 C31.61 0 37.22 0 43 0 C50.1886366 25.16022811 50.17767593 51.06478078 50 77 C50.66 77 51.32 77 52 77 C51.99279434 76.27401108 51.98558868 75.54802216 51.97816467 74.80003357 C51.93732275 67.47861446 52.17984622 60.21707165 52.62109375 52.91015625 C52.68531021 51.80377304 52.74952667 50.69738983 52.81568909 49.55747986 C52.95110159 47.23557147 53.08816042 44.91375855 53.22680664 42.59204102 C53.43673974 39.07523596 53.64167149 35.55816752 53.84570312 32.04101562 C53.97887431 29.76821202 54.11232852 27.49542497 54.24609375 25.22265625 C54.33678383 23.67361351 54.33678383 23.67361351 54.42930603 22.09327698 C54.87090107 14.72168318 55.41875485 7.36191635 56 0 C60.29 0 64.58 0 69 0 C69.18138771 8.97896917 68.47216903 17.83270399 67.72265625 26.76953125 C67.59025802 28.37991639 67.45813702 29.99032435 67.32627869 31.60075378 C67.05058645 34.95695569 66.77208923 38.31290896 66.49145508 41.66870117 C66.13247256 45.96321468 65.77976707 50.25821583 65.42903996 54.55341053 C65.15758337 57.8710306 64.88323374 61.1884064 64.60796928 64.50571251 C64.47680745 66.08964169 64.34644403 67.6736372 64.21690559 69.25769997 C64.03558157 71.46868148 63.85046019 73.67931313 63.66430664 75.88989258 C63.5599379 77.14546463 63.45556915 78.40103668 63.34803772 79.69465637 C63 83 63 83 62 88 C55.07 88 48.14 88 41 88 C36.82189993 62.55157227 35.49900036 36.77364824 36 11 C35.34 11 34.68 11 34 11 C34.00942627 11.86238281 34.01885254 12.72476563 34.02856445 13.61328125 C34.09152934 24.09728103 33.72511201 34.5308275 33.1875 45 C33.14498108 45.84885773 33.10246216 46.69771545 33.05865479 47.57229614 C32.36500705 61.16366636 31.15282748 74.55200437 29 88 C25.52085059 88.02887814 22.04173169 88.04675687 18.5625 88.0625 C17.07266602 88.07506836 17.07266602 88.07506836 15.55273438 88.08789062 C14.60849609 88.09111328 13.66425781 88.09433594 12.69140625 88.09765625 C11.81685791 88.10289307 10.94230957 88.10812988 10.04125977 88.11352539 C8 88 8 88 7 87 C6.69522304 84.29719931 6.45094845 81.61103568 6.24389648 78.90014648 C6.14126495 77.62708649 6.14126495 77.62708649 6.03656006 76.32830811 C5.81040758 73.50956359 5.59074074 70.69035206 5.37109375 67.87109375 C5.21597859 65.92192981 5.06046125 63.97279783 4.90455627 62.0236969 C4.49447566 56.88325794 4.08988327 51.74240098 3.68640137 46.60144043 C3.27404198 41.35968319 2.85653633 36.11833623 2.43945312 30.87695312 C1.62124184 20.58503218 0.80882323 10.29266269 0 0 Z " fill="#FEFEFE" transform="translate(1130,508)"/>
<path d="M0 0 C4.29 0 8.58 0 13 0 C13.90812285 2.72436854 14.20317962 4.67597076 14.37304688 7.50537109 C14.42980591 8.41837982 14.48656494 9.33138855 14.54504395 10.27206421 C14.63102844 11.75774399 14.63102844 11.75774399 14.71875 13.2734375 C14.78155151 14.30699371 14.84435303 15.34054993 14.90905762 16.40542603 C15.04202032 18.60610755 15.17302632 20.80690802 15.30224609 23.0078125 C15.49557995 26.2997391 15.69445828 29.59128937 15.89453125 32.8828125 C16.6998054 46.25081746 17.39855203 59.62132049 18 73 C18.90899797 69.62396291 19.1106513 66.67128503 19.10546875 63.1640625 C19.30434547 41.68102179 22.26272649 21.13216734 26 0 C31.61 0 37.22 0 43 0 C50.1886366 25.16022811 50.17767593 51.06478078 50 77 C50.66 77 51.32 77 52 77 C51.99279434 76.27401108 51.98558868 75.54802216 51.97816467 74.80003357 C51.93732275 67.47861446 52.17984622 60.21707165 52.62109375 52.91015625 C52.68531021 51.80377304 52.74952667 50.69738983 52.81568909 49.55747986 C52.95110159 47.23557147 53.08816042 44.91375855 53.22680664 42.59204102 C53.43673974 39.07523596 53.64167149 35.55816752 53.84570312 32.04101562 C53.97887431 29.76821202 54.11232852 27.49542497 54.24609375 25.22265625 C54.33678383 23.67361351 54.33678383 23.67361351 54.42930603 22.09327698 C54.87090107 14.72168318 55.41875485 7.36191635 56 0 C60.29 0 64.58 0 69 0 C69.18138771 8.97896917 68.47216903 17.83270399 67.72265625 26.76953125 C67.59025802 28.37991639 67.45813702 29.99032435 67.32627869 31.60075378 C67.05058645 34.95695569 66.77208923 38.31290896 66.49145508 41.66870117 C66.13247256 45.96321468 65.77976707 50.25821583 65.42903996 54.55341053 C65.15758337 57.8710306 64.88323374 61.1884064 64.60796928 64.50571251 C64.47680745 66.08964169 64.34644403 67.6736372 64.21690559 69.25769997 C64.03558157 71.46868148 63.85046019 73.67931313 63.66430664 75.88989258 C63.5599379 77.14546463 63.45556915 78.40103668 63.34803772 79.69465637 C63 83 63 83 62 88 C55.07 88 48.14 88 41 88 C36.82189993 62.55157227 35.49900036 36.77364824 36 11 C35.34 11 34.68 11 34 11 C34.00942627 11.86238281 34.01885254 12.72476563 34.02856445 13.61328125 C34.09152934 24.09728103 33.72511201 34.5308275 33.1875 45 C33.14498108 45.84885773 33.10246216 46.69771545 33.05865479 47.57229614 C32.36500705 61.16366636 31.15282748 74.55200437 29 88 C25.52085059 88.02887814 22.04173169 88.04675687 18.5625 88.0625 C17.07266602 88.07506836 17.07266602 88.07506836 15.55273438 88.08789062 C14.60849609 88.09111328 13.66425781 88.09433594 12.69140625 88.09765625 C11.81685791 88.10289307 10.94230957 88.10812988 10.04125977 88.11352539 C8 88 8 88 7 87 C6.69522304 84.29719931 6.45094845 81.61103568 6.24389648 78.90014648 C6.14126495 77.62708649 6.14126495 77.62708649 6.03656006 76.32830811 C5.81040758 73.50956359 5.59074074 70.69035206 5.37109375 67.87109375 C5.21597859 65.92192981 5.06046125 63.97279783 4.90455627 62.0236969 C4.49447566 56.88325794 4.08988327 51.74240098 3.68640137 46.60144043 C3.27404198 41.35968319 2.85653633 36.11833623 2.43945312 30.87695312 C1.62124184 20.58503218 0.80882323 10.29266269 0 0 Z " fill="#FEFEFE" transform="translate(876,508)"/>
<path d="M0 0 C2.8125 1.1875 2.8125 1.1875 3.97265625 3.390625 C5.76852636 9.37129011 5.29535467 15.81346453 4.0625 21.875 C2.8125 24.1875 2.8125 24.1875 0.9375 25.25 C-1.8911408 25.16680468 -3.02397384 23.92103665 -5.1875 22.1875 C-23.5772803 76.07566648 -38.69843765 130.88184148 -53.10268402 185.95264053 C-53.6757052 188.14242645 -54.24989268 190.33190381 -54.82427979 192.52133179 C-58.77629915 207.59881384 -62.61267848 222.69577689 -66.15625 237.875 C-66.59547791 239.75517822 -66.59547791 239.75517822 -67.0435791 241.67333984 C-70.32505584 255.83006866 -70.32505584 255.83006866 -69.1875 270.1875 C-48.0206932 270.50751652 -26.84666196 254.83628791 -9.2956543 244.60473633 C38.39971694 216.88040094 38.39971694 216.88040094 61.8125 219.1875 C62.1425 221.1675 62.4725 223.1475 62.8125 225.1875 C59.41254662 227.45413559 57.58156952 227.58249392 53.5625 228 C28.40561075 231.45491358 5.523547 246.10297194 -16.16503906 258.46484375 C-56.40313427 281.39860787 -56.40313427 281.39860787 -69.20703125 278.7734375 C-73.85457172 277.14924441 -75.94076712 274.42172734 -78.1875 270.1875 C-80.92302923 261.27733421 -78.60688624 252.06501246 -76.60546875 243.24609375 C-76.3348613 242.02224472 -76.06425385 240.79839569 -75.78544617 239.53746033 C-72.91921853 226.71753195 -69.76081991 213.97443714 -66.5 201.25 C-66.18580109 200.01858276 -65.87160217 198.78716553 -65.54788208 197.51843262 C-51.58227989 142.86631535 -36.8915991 88.19467911 -19.1875 34.625 C-18.86591919 33.64629944 -18.86591919 33.64629944 -18.5378418 32.64782715 C-7.91054685 0.46532629 -7.91054685 0.46532629 0 0 Z " fill="#F8F8F8" transform="translate(1443.1875,54.8125)"/>
<path d="M0 0 C1.53844818 3.07689636 0.50505133 5.41997825 -0.15234375 8.76171875 C-0.2871666 9.4513974 -0.42198944 10.14107605 -0.56089783 10.85165405 C-1.01081527 13.13216012 -1.47280017 15.40996243 -1.9375 17.6875 C-2.09583313 18.4698703 -2.25416626 19.2522406 -2.41729736 20.05831909 C-20.92473881 111.11599693 -20.92473881 111.11599693 -46.33984375 131.03125 C-49.11993828 132.65351692 -50.9054732 132.75643988 -54 132 C-58.62444603 127.63246764 -60.0627978 122.52596439 -60.30078125 116.3125 C-60.3204412 114.54177149 -60.32363512 112.77080263 -60.3125 111 C-60.30404053 109.59669434 -60.30404053 109.59669434 -60.29541016 108.16503906 C-60.16158937 100.46703124 -59.21315818 93.39682905 -57 86 C-56.81195801 85.3620752 -56.62391602 84.72415039 -56.43017578 84.06689453 C-46.57019856 51.42778138 -24.23686581 23.37807922 0 0 Z " fill="#000000" transform="translate(686,256)"/>
<path d="M0 0 C1.56810183 19.20924745 -10.36601928 40.40020334 -22.34179688 54.58984375 C-25.45660086 58.16334958 -28.71066074 61.58737217 -32 65 C-32.64324219 65.70640625 -33.28648437 66.4128125 -33.94921875 67.140625 C-45.17567118 79.12200156 -64.82720889 94.13922314 -81.765625 95.16796875 C-84.18732959 95.18488009 -86.58260125 95.13626256 -89 95 C-90.20985831 87.39517631 -86.20932462 82.07606859 -82 76 C-78.55496403 71.47660096 -74.8001579 67.22551069 -71 63 C-70.51917969 62.4627832 -70.03835937 61.92556641 -69.54296875 61.37207031 C-62.4847236 53.51002232 -55.30217675 45.90713481 -47.2890625 39.0078125 C-45.06448417 37.0565612 -42.88867933 35.05860706 -40.71972656 33.04589844 C-35.57714145 28.27696196 -30.32559074 23.72404847 -24.859375 19.32421875 C-21.63387823 16.70240102 -18.47335696 14.01145914 -15.3125 11.3125 C-2.01850492 0 -2.01850492 0 0 0 Z " fill="#010101" transform="translate(180,252)"/>
<path d="M0 0 C25 0 25 0 33 4 C38.35454497 10.73636303 37.21644314 19.59568416 37.25 27.75 C37.270625 28.9875 37.29125 30.225 37.3125 31.5 C37.37859642 47.03265807 37.37859642 47.03265807 32.52050781 52.73730469 C31 54 31 54 29 54 C29.27263672 54.92337158 29.54527344 55.84674316 29.82617188 56.7980957 C30.83659742 60.224151 31.84170582 63.65174704 32.84521484 67.07983398 C33.28028804 68.56333299 33.7168022 70.04641019 34.15478516 71.52905273 C34.78406996 73.66020206 35.40815762 75.79281441 36.03125 77.92578125 C36.22811401 78.58838455 36.42497803 79.25098785 36.62780762 79.93367004 C37.4418003 82.73639898 38 85.06278014 38 88 C33.38 88 28.76 88 24 88 C22.99980204 84.06809933 22.00178003 80.13574514 21.00927734 76.2019043 C20.67103529 74.86401591 20.33152641 73.52644712 19.99072266 72.18920898 C19.50089381 70.26630945 19.01600603 68.34215339 18.53125 66.41796875 C18.09135742 64.68196411 18.09135742 64.68196411 17.64257812 62.91088867 C17 60 17 60 17 57 C15.68 57 14.36 57 13 57 C13 67.23 13 77.46 13 88 C8.71 88 4.42 88 0 88 C0 58.96 0 29.92 0 0 Z M13 11 C13 22.22 13 33.44 13 45 C20.21831019 45.65676077 20.21831019 45.65676077 22.97729492 43.88085938 C24.45424818 41.16459107 24.37166237 38.9886882 24.36328125 35.90625 C24.36263672 34.71128906 24.36199219 33.51632812 24.36132812 32.28515625 C24.34521484 31.03605469 24.32910156 29.78695312 24.3125 28.5 C24.31572266 27.25089844 24.31894531 26.00179687 24.32226562 24.71484375 C24.55284893 17.97769387 24.55284893 17.97769387 22 12 C19.03 11.67 16.06 11.34 13 11 Z " fill="#FEFEFE" transform="translate(1001,508)"/>
<path d="M0 0 C26 0 26 0 32 3 C38.15291931 9.15291931 38.23409202 16.1601199 38.30354309 24.40524292 C38.30263168 25.60955963 38.30172028 26.81387634 38.30078125 28.0546875 C38.30506638 29.31080841 38.3093515 30.56692932 38.31376648 31.8611145 C38.31949712 34.51220793 38.32096059 37.16291041 38.31567383 39.81396484 C38.30988694 43.18843023 38.32680575 46.56234534 38.3500185 49.93671989 C38.36841211 53.18437085 38.36456817 56.43199392 38.36328125 59.6796875 C38.372491 60.87995575 38.38170074 62.080224 38.39118958 63.31686401 C38.3492412 70.98036127 37.98677424 78.24244532 33.0625 84.4375 C22.74016385 92.25745163 16.43367057 88 0 88 C0 58.96 0 29.92 0 0 Z M13 11 C13 32.78 13 54.56 13 77 C20.38391191 77.73817005 20.38391191 77.73817005 23.46963501 75.35816956 C25.36482156 72.43783928 25.49560671 70.73881806 25.48583984 67.26928711 C25.4919931 66.1180687 25.49814636 64.96685028 25.50448608 63.78074646 C25.49011505 62.54212357 25.47574402 61.30350067 25.4609375 60.02734375 C25.46002106 58.75274796 25.45910461 57.47815216 25.4581604 56.16493225 C25.45211752 53.47033237 25.43850575 50.77710336 25.41162109 48.08276367 C25.37760706 44.63033952 25.3699937 41.1785004 25.37151146 37.72592831 C25.37083682 34.43050895 25.35316107 31.13521219 25.3359375 27.83984375 C25.33371185 26.59919662 25.33148621 25.3585495 25.32919312 24.08030701 C25.31643341 22.93224075 25.30367371 21.7841745 25.29052734 20.60131836 C25.28290375 19.58968124 25.27528015 18.57804413 25.26742554 17.53575134 C25.1727051 14.75598456 25.1727051 14.75598456 23 12 C19.4202491 10.63106761 19.4202491 10.63106761 13 11 Z " fill="#FEFEFE" transform="translate(1229,508)"/>
<path d="M0 0 C26 0 26 0 32 3 C38.15291931 9.15291931 38.23409202 16.1601199 38.30354309 24.40524292 C38.30263168 25.60955963 38.30172028 26.81387634 38.30078125 28.0546875 C38.30506638 29.31080841 38.3093515 30.56692932 38.31376648 31.8611145 C38.31949712 34.51220793 38.32096059 37.16291041 38.31567383 39.81396484 C38.30988694 43.18843023 38.32680575 46.56234534 38.3500185 49.93671989 C38.36841211 53.18437085 38.36456817 56.43199392 38.36328125 59.6796875 C38.372491 60.87995575 38.38170074 62.080224 38.39118958 63.31686401 C38.3492412 70.98036127 37.98677424 78.24244532 33.0625 84.4375 C22.74016385 92.25745163 16.43367057 88 0 88 C0 58.96 0 29.92 0 0 Z M13 11 C13 32.78 13 54.56 13 77 C20.38391191 77.73817005 20.38391191 77.73817005 23.46963501 75.35816956 C25.36482156 72.43783928 25.49560671 70.73881806 25.48583984 67.26928711 C25.4919931 66.1180687 25.49814636 64.96685028 25.50448608 63.78074646 C25.49011505 62.54212357 25.47574402 61.30350067 25.4609375 60.02734375 C25.46002106 58.75274796 25.45910461 57.47815216 25.4581604 56.16493225 C25.45211752 53.47033237 25.43850575 50.77710336 25.41162109 48.08276367 C25.37760706 44.63033952 25.3699937 41.1785004 25.37151146 37.72592831 C25.37083682 34.43050895 25.35316107 31.13521219 25.3359375 27.83984375 C25.33371185 26.59919662 25.33148621 25.3585495 25.32919312 24.08030701 C25.31643341 22.93224075 25.30367371 21.7841745 25.29052734 20.60131836 C25.28290375 19.58968124 25.27528015 18.57804413 25.26742554 17.53575134 C25.1727051 14.75598456 25.1727051 14.75598456 23 12 C19.4202491 10.63106761 19.4202491 10.63106761 13 11 Z " fill="#FEFEFE" transform="translate(1086,508)"/>
<path d="M0 0 C4.13397129 2.60619929 6.33117638 5.18102915 7.875 9.8125 C9.21948252 20.14755185 9.02917374 30.62351284 9.00537109 41.0234375 C9.00000992 43.80734705 9.00534714 46.59109532 9.01171875 49.375 C9.02448345 78.03286234 9.02448345 78.03286234 4.875 83.8125 C-0.1803609 88.48870883 -4.2632065 89.01409171 -10.9375 89.0625 C-11.63681641 89.083125 -12.33613281 89.10375 -13.05664062 89.125 C-18.63596471 89.16675359 -22.4400808 87.8261894 -26.875 84.5 C-30.0407873 80.22618715 -30.38089295 75.35620608 -30.41552734 70.19970703 C-30.42828705 68.90461212 -30.44104675 67.60951721 -30.45419312 66.275177 C-30.45725103 64.87355703 -30.45947865 63.47193504 -30.4609375 62.0703125 C-30.46737263 60.61831534 -30.47410151 59.16631946 -30.48110962 57.71432495 C-30.49305514 54.67654415 -30.49679323 51.63887684 -30.49560547 48.60107422 C-30.49540236 44.72530438 -30.5227077 40.85026842 -30.55714989 36.97467232 C-30.57948262 33.97704788 -30.58344109 30.97959835 -30.58238602 27.98189926 C-30.58473227 26.55386704 -30.59350041 25.12582927 -30.60905075 23.69787979 C-30.68792552 15.70761724 -30.68964081 9.5445536 -26.125 2.8125 C-19.25798216 -2.84817158 -8.13557909 -3.05743145 0 0 Z M-17.125 11.8125 C-19.44947239 20.53094937 -18.27686791 31.02743621 -18.25537109 40.01806641 C-18.25002543 42.67486311 -18.25533577 45.33148976 -18.26171875 47.98828125 C-18.49122492 61.9566965 -18.49122492 61.9566965 -17.125 75.8125 C-14.694534 78.242966 -13.5260144 78.57521993 -10.125 78.8125 C-7.33991684 77.67500805 -7.33991684 77.67500805 -5.125 75.8125 C-4.08623794 72.69621382 -3.98600093 70.49660923 -3.96386719 67.22705078 C-3.95425964 66.08221222 -3.9446521 64.93737366 -3.93475342 63.75784302 C-3.93050354 62.52033295 -3.92625366 61.28282288 -3.921875 60.0078125 C-3.91617493 58.7365451 -3.91047485 57.46527771 -3.90460205 56.15548706 C-3.89514866 53.46381042 -3.88825344 50.77224537 -3.88476562 48.08056641 C-3.87928281 44.63837201 -3.85525501 41.19657355 -3.82679367 37.75450325 C-3.80364537 34.46396977 -3.8017163 31.17341601 -3.796875 27.8828125 C-3.7845282 26.64935089 -3.7721814 25.41588928 -3.75946045 24.14505005 C-3.76246155 22.99390717 -3.76546265 21.84276428 -3.76855469 20.65673828 C-3.76490906 19.64652618 -3.76126343 18.63631409 -3.75750732 17.5954895 C-4.19249715 14.30135005 -5.07847431 12.42070662 -7.125 9.8125 C-11.51592112 9.26363486 -13.41000878 9.33583918 -17.125 11.8125 Z " fill="#FEFEFE" transform="translate(983.125,508.1875)"/>
<path d="M0 0 C10.56 0 21.12 0 32 0 C32 3.63 32 7.26 32 11 C25.73 11 19.46 11 13 11 C13 19.91 13 28.82 13 38 C18.94 38 24.88 38 31 38 C31 41.63 31 45.26 31 49 C25.06 49 19.12 49 13 49 C13 58.24 13 67.48 13 77 C19.27 77 25.54 77 32 77 C32 80.63 32 84.26 32 88 C21.44 88 10.88 88 0 88 C0 58.96 0 29.92 0 0 Z " fill="#FEFEFE" transform="translate(1276,508)"/>
<path d="M0 0 C4.29 0 8.58 0 13 0 C13 25.41 13 50.82 13 77 C19.27 77 25.54 77 32 77 C32 80.63 32 84.26 32 88 C21.44 88 10.88 88 0 88 C0 58.96 0 29.92 0 0 Z " fill="#FEFEFE" transform="translate(1046,508)"/>
<path d="M0 0 C4.29 0 8.58 0 13 0 C13 29.04 13 58.08 13 88 C8.71 88 4.42 88 0 88 C0 58.96 0 29.92 0 0 Z " fill="#FEFEFE" transform="translate(1207,508)"/>
<path d="M0 0 C0.06058594 0.60328125 0.12117188 1.2065625 0.18359375 1.828125 C0.30927734 3.02695313 0.30927734 3.02695313 0.4375 4.25 C0.55931641 5.43335938 0.55931641 5.43335938 0.68359375 6.640625 C0.91312739 8.95550648 0.91312739 8.95550648 1.66015625 10.88525391 C2.12003458 13.74693932 1.30504538 14.78097114 -0.24609375 17.1953125 C-0.75011719 17.98929443 -1.25414062 18.78327637 -1.7734375 19.60131836 C-2.32257813 20.4341333 -2.87171875 21.26694824 -3.4375 22.125 C-3.98792969 22.97650635 -4.53835938 23.8280127 -5.10546875 24.70532227 C-9.06350936 30.75740217 -13.15512398 36.61558096 -18 42 C-18.97453125 43.11568359 -18.97453125 43.11568359 -19.96875 44.25390625 C-22 46 -22 46 -26 46 C-29.07294518 34.78250093 -25.32959706 24.16105002 -20.1875 14.125 C-15.39054989 5.7851248 -10.00824693 -0.3776697 0 0 Z " fill="#020202" transform="translate(1126,195)"/>
<path d="M0 0 C-0.36697581 15.07936964 -7.9452264 27.67159161 -18.54296875 37.98046875 C-22.33626366 41.098328 -26.48520787 43.12433479 -31 45 C-29.04555843 38.49004931 -26.50100151 32.55964324 -23.3125 26.5625 C-22.87188232 25.73137695 -22.43126465 24.90025391 -21.97729492 24.04394531 C-18.58735859 17.79407533 -14.85703801 12.21980433 -10 7 C-9.03707031 5.93652344 -9.03707031 5.93652344 -8.0546875 4.8515625 C-3.47159091 0 -3.47159091 0 0 0 Z " fill="#030303" transform="translate(413,213)"/>
<path d="M0 0 C1.13855762 3.41567285 0.9349449 3.79842711 -0.4765625 6.9140625 C-0.81558594 7.67154785 -1.15460938 8.4290332 -1.50390625 9.20947266 C-1.87386719 10.00659668 -2.24382812 10.8037207 -2.625 11.625 C-2.99238281 12.43372559 -3.35976562 13.24245117 -3.73828125 14.07568359 C-6.24651276 19.53768773 -8.93424786 24.82654326 -12 30 C-14.23344057 26.64983914 -14.22036262 25.192534 -13.59375 21.3046875 C-11.36135571 12.63947282 -6.12961509 6.29692468 0 0 Z " fill="#080808" transform="translate(1244,170)"/>
<path d="M0 0 C1.3303125 0.4021875 1.3303125 0.4021875 2.6875 0.8125 C3.58424777 3.32339376 3.81922674 4.45785109 2.875 7 C1.6875 8.8125 1.6875 8.8125 -0.3125 9.8125 C-2.6454866 9.85272391 -4.97956666 9.85570247 -7.3125 9.8125 C-8.125 7.625 -8.125 7.625 -8.3125 4.8125 C-5.69707843 1.16676084 -4.59083122 -0.25985837 0 0 Z " fill="#F4F4F4" transform="translate(1496.3125,178.1875)"/>
<path d="M0 0 C2.25 0.8125 2.25 0.8125 3.25 1.8125 C2.9375 5.3125 2.9375 5.3125 2.25 8.8125 C-0.73212913 10.30356457 -3.46609658 9.93191467 -6.75 9.8125 C-7.75 8.8125 -7.75 8.8125 -8.125 6.5 C-7.75 3.8125 -7.75 3.8125 -5.5625 1.4375 C-2.75 -0.1875 -2.75 -0.1875 0 0 Z " fill="#F7F7F7" transform="translate(802.75,178.1875)"/>
<path d="M0 0 C2.25 0.8125 2.25 0.8125 3.25 1.8125 C3.53792759 4.54781209 3.59443368 6.22493666 2.1875 8.625 C-0.77175003 10.43873389 -3.36580225 10.06318132 -6.75 9.8125 C-7.75 8.8125 -7.75 8.8125 -8.125 6.5 C-7.75 3.8125 -7.75 3.8125 -5.5625 1.4375 C-2.75 -0.1875 -2.75 -0.1875 0 0 Z " fill="#F8F8F8" transform="translate(755.75,178.1875)"/>
<path d="M0 0 C1 2 1 2 -0.1875 5.75390625 C-0.78275679 7.360101 -1.38759846 8.96276359 -2 10.5625 C-2.31670654 11.40280762 -2.63341309 12.24311523 -2.9597168 13.10888672 C-3.96042645 15.74436039 -4.97666658 18.37323316 -6 21 C-6.32693848 21.83934082 -6.65387695 22.67868164 -6.99072266 23.54345703 C-7.91968948 25.90882532 -8.86213174 28.26815795 -9.8125 30.625 C-10.10189453 31.35275635 -10.39128906 32.0805127 -10.68945312 32.83032227 C-12.76408067 37.88204033 -12.76408067 37.88204033 -15 39 C-11.69385809 25.31141243 -6.627377 12.40870588 0 0 Z " fill="#141414" transform="translate(280,83)"/>
<path d="M0 0 C1 2 1 2 0.47436523 4.0402832 C0.02105835 5.28297974 0.02105835 5.28297974 -0.44140625 6.55078125 C-0.77527344 7.47165527 -1.10914063 8.3925293 -1.453125 9.34130859 C-1.81921875 10.32180176 -2.1853125 11.30229492 -2.5625 12.3125 C-2.92730469 13.30330566 -3.29210937 14.29411133 -3.66796875 15.31494141 C-6.4327992 22.72367196 -9.47239592 29.91806756 -13 37 C-14.17062855 33.48811436 -13.79088296 32.69920602 -12.55859375 29.31640625 C-12.22472656 28.39359863 -11.89085937 27.47079102 -11.546875 26.52001953 C-10.99773437 25.05604736 -10.99773437 25.05604736 -10.4375 23.5625 C-10.07269531 22.57362793 -9.70789063 21.58475586 -9.33203125 20.56591797 C-6.66123973 13.45120017 -3.70208733 6.64692953 0 0 Z " fill="#121212" transform="translate(424,84)"/>
<path d="M0 0 C1.16586043 3.49758129 0.81594505 4.17390223 -0.4765625 7.5 C-0.81558594 8.38276611 -1.15460938 9.26553223 -1.50390625 10.17504883 C-1.87386719 11.10728271 -2.24382812 12.0395166 -2.625 13 C-2.99238281 13.94447998 -3.35976563 14.88895996 -3.73828125 15.86206055 C-6.28136707 22.34302553 -8.95006504 28.73883544 -12 35 C-13.12365857 31.62902428 -12.90279102 30.97837711 -11.77734375 27.75390625 C-11.3443396 26.50528809 -11.3443396 26.50528809 -10.90258789 25.23144531 C-10.58410889 24.35069336 -10.26562988 23.46994141 -9.9375 22.5625 C-9.61966553 21.66756836 -9.30183105 20.77263672 -8.97436523 19.85058594 C-6.4687396 12.94719183 -3.56716623 6.42873914 0 0 Z " fill="#0B0B0B" transform="translate(496,84)"/>
<path d="M0 0 C8.13695602 0.27123187 13.93179365 3.08916501 21 7 C15.60270782 8.88969942 10.18470202 6.87441478 5 5 C2.80220452 3.472872 1.6302653 2.15427915 0 0 Z " fill="#101010" transform="translate(909,205)"/>
</svg>
