<?xml version="1.0" encoding="UTF-8"?>
<svg version="1.1" xmlns="http://www.w3.org/2000/svg" width="3000" height="3000">
<path d="M0 0 C990 0 1980 0 3000 0 C3000 990 3000 1980 3000 3000 C2010 3000 1020 3000 0 3000 C0 2010 0 1020 0 0 Z " fill="#000000" transform="translate(0,0)"/>
<path d="M0 0 C3.19363953 1.37859928 4.99361769 2.88108828 7.1875 5.5625 C11.20628251 10.30963328 15.56737146 14.64174442 20 19 C28.56695546 27.42321459 28.56695546 27.42321459 32.375 31.875 C36.95371913 37.20277226 42.00137195 42.07172797 47 47 C52.62838837 52.54916842 58.18661223 58.09479548 63.328125 64.10546875 C66.38378296 67.56807181 69.70455287 70.76768404 73 74 C76.92718361 77.8519502 80.79263903 81.69697714 84.375 85.875 C88.65531609 90.84443727 93.33013636 95.39983582 98 100 C103.25007916 105.17171976 108.37071772 110.3503921 113.16796875 115.9453125 C116.91689207 120.1498619 120.9884459 124.04831984 125 128 C130.29101495 133.21204457 135.45788474 138.43126839 140.29296875 144.0703125 C143.36395587 147.54186316 146.69246261 150.75582539 150 154 C153.9166825 157.84165027 157.77337548 161.67480029 161.34375 165.84375 C165.78656374 171.00184667 170.65486412 175.72339504 175.5 180.5 C180.93098171 185.85416443 186.25531363 191.20086208 191.21679688 196.99414062 C194.78805311 201.01131494 198.67063459 204.73113009 202.5 208.5 C211.59781432 217.45408897 211.59781432 217.45408897 215.4375 221.9375 C219.84276487 227.06930101 224.68662116 231.7547029 229.5 236.5 C234.94242253 241.86544342 240.27808353 247.22332759 245.24853516 253.03027344 C249.35010594 257.64296832 253.8763563 261.87011581 258.29882812 266.171875 C259.40194336 267.25855469 259.40194336 267.25855469 260.52734375 268.3671875 C261.52882446 269.34341064 261.52882446 269.34341064 262.55053711 270.33935547 C264 272 264 272 264 274 C264.66 274 265.32 274 266 274 C267.375 275.3984375 267.375 275.3984375 269 277.375 C273.3896885 282.53720096 278.17533167 287.24734165 283 292 C288.26031206 297.18179994 293.39250747 302.37060882 298.19921875 307.9765625 C301.77825901 311.99813052 305.66457869 315.72516986 309.5 319.5 C314.60105527 324.52046988 319.55266879 329.56282021 324.21337891 334.99511719 C328.33137553 339.61618692 332.86398269 343.85807994 337.29882812 348.171875 C338.40194336 349.25855469 338.40194336 349.25855469 339.52734375 350.3671875 C340.52882446 351.34341064 340.52882446 351.34341064 341.55053711 352.33935547 C343 354 343 354 343 356 C343.99 356.33 344.98 356.66 346 357 C347.296875 358.3203125 347.296875 358.3203125 348.75 360.125 C353.01058423 365.1685121 357.69461616 369.74997612 362.40527344 374.36767578 C365.50099621 377.42230489 368.48292342 380.5085434 371.3125 383.8125 C375.76776342 388.9794028 380.64428669 393.71296722 385.5 398.5 C390.93541746 403.85853744 396.26534908 409.20930395 401.23046875 415.0078125 C404.71773727 418.93387639 408.50780189 422.5691494 412.25 426.25 C413.84089612 427.81531901 415.42952868 429.38294269 417.015625 430.953125 C417.70946289 431.63536133 418.40330078 432.31759766 419.11816406 433.02050781 C420.92227741 434.91824406 422.4769691 436.87298807 424 439 C422.6374818 442.08374875 421.12774154 444.07468284 418.65625 446.35546875 C417.99189941 446.97341309 417.32754883 447.59135742 416.64306641 448.22802734 C415.58224854 449.19796631 415.58224854 449.19796631 414.5 450.1875 C413.77603027 450.8573291 413.05206055 451.5271582 412.30615234 452.21728516 C406.91537143 457.19440811 401.48013057 462.1214618 396 467 C390.41511775 471.9960314 384.87174898 477.03237731 379.375 482.125 C375.33061062 485.87135723 371.25130556 489.5604493 367.08203125 493.16796875 C363.86353123 496.00000723 360.71706589 498.91027948 357.56225586 501.81274414 C353.59108822 505.46457177 349.5861756 509.07703218 345.5703125 512.6796875 C342.65571553 515.31079783 339.76460776 517.96652475 336.875 520.625 C333.63786909 523.6022264 330.38862144 526.55952966 327.0625 529.4375 C322.93244815 533.01802312 318.9339593 536.73579762 314.92480469 540.45019531 C309.21130836 545.74022462 303.41887333 550.93982813 297.6171875 556.1328125 C292.83293223 560.42479713 288.08967424 564.75695316 283.375 569.125 C279.32791151 572.87385745 275.24509135 576.56452258 271.07421875 580.17578125 C266.30859731 584.36701517 261.66809975 588.70073776 257 593 C245.42694257 603.65864302 245.42694257 603.65864302 241.0625 607.4375 C236.930891 611.01937309 232.93070073 614.73837958 228.92041016 618.45458984 C224.82306071 622.24887039 220.68589227 625.99546447 216.52734375 629.72265625 C213.66917758 632.2980981 210.83293383 634.89689696 208 637.5 C202.69880938 642.36947285 197.35851141 647.19373453 192 652 C186.77655199 656.6919684 181.56356718 661.39445806 176.375 666.125 C173.36218364 668.86926449 170.33750155 671.59020429 167.25 674.25 C162.54608572 678.33190909 158.03603318 682.62196743 153.49365234 686.88134766 C149.75149697 690.38418458 145.97203763 693.82099819 142.0859375 697.1640625 C139.17636877 699.72491887 136.34154434 702.36412017 133.5 705 C130.03716632 708.2116335 126.57351485 711.41102953 123 714.5 C118.88639854 718.05817847 114.90904725 721.7584212 110.92016602 725.45483398 C106.8255749 729.24651647 102.69158422 732.99095463 98.53515625 736.71484375 C95.63086734 739.33273129 92.75229225 741.97753203 89.875 744.625 C86.63788971 747.60224819 83.3886208 750.55953021 80.0625 753.4375 C75.930891 757.01937309 71.93070073 760.73837958 67.92041016 764.45458984 C63.82171295 768.25011846 59.68300481 771.99775944 55.5234375 775.7265625 C52.68829734 778.2808219 49.87330735 780.85654944 47.0625 783.4375 C31.55400435 797.67289163 31.55400435 797.67289163 26.125 802.375 C21.92338357 806.02331715 17.85731025 809.81379024 13.77783203 813.59716797 C10.8865336 816.27386147 7.98119324 818.92303635 5 821.5 C0.88639854 825.05817847 -3.09095275 828.7584212 -7.07983398 832.45483398 C-11.1744251 836.24651647 -15.30841578 839.99095463 -19.46484375 843.71484375 C-22.36913266 846.33273129 -25.24770775 848.97753203 -28.125 851.625 C-31.36211029 854.60224819 -34.6113792 857.55953021 -37.9375 860.4375 C-42.069109 864.01937309 -46.06929927 867.73837958 -50.07958984 871.45458984 C-54.17424371 875.2463742 -58.30833007 878.99087784 -62.46484375 882.71484375 C-64.84347561 884.85891099 -67.2055355 887.01945019 -69.56225586 889.1875 C-73.5239287 892.83166961 -77.48709672 896.47475561 -81.5 900.0625 C-82.0878125 900.58972656 -82.675625 901.11695313 -83.28125 901.66015625 C-85.09580328 903.07468301 -86.91279864 904.04336604 -89 905 C-89 905.66 -89 906.32 -89 907 C-90.328125 908.33984375 -90.328125 908.33984375 -92.25 909.9375 C-95.90973743 913.04568126 -99.4733571 916.24241826 -103 919.5 C-106.27804574 922.51980007 -109.56582555 925.5220352 -112.9375 928.4375 C-117.069109 932.01937309 -121.06929927 935.73837958 -125.07958984 939.45458984 C-129.17693929 943.24887039 -133.31410773 946.99546447 -137.47265625 950.72265625 C-140.33082242 953.2980981 -143.16706617 955.89689696 -146 958.5 C-151.30119633 963.3694781 -156.6419273 968.19324024 -162 973 C-164.50449137 975.25325712 -167.00819863 977.50738259 -169.51171875 979.76171875 C-171.13776274 981.22439255 -172.76530462 982.68540333 -174.39453125 984.14453125 C-179.17587417 988.43151885 -183.91439585 992.76067429 -188.625 997.125 C-192.64652812 1000.85056399 -196.7051186 1004.514976 -200.8515625 1008.1015625 C-204.31271831 1011.15996564 -207.68743785 1014.31149124 -211.07543945 1017.45043945 C-216.78888191 1022.74035759 -222.58121218 1027.93990467 -228.3828125 1033.1328125 C-233.16706777 1037.42479713 -237.91032576 1041.75695316 -242.625 1046.125 C-246.66938938 1049.87135723 -250.74869444 1053.5604493 -254.91796875 1057.16796875 C-258.13646877 1060.00000723 -261.28293411 1062.91027948 -264.43774414 1065.81274414 C-267.60797718 1068.72804404 -270.79403325 1071.62390764 -274 1074.5 C-277.68830432 1077.81001669 -281.35070475 1081.14709421 -285 1084.5 C-289.45064847 1088.58917448 -293.93078083 1092.64369084 -298.4296875 1096.6796875 C-301.34428447 1099.31079783 -304.23539224 1101.96652475 -307.125 1104.625 C-310.36213091 1107.6022264 -313.61137856 1110.55952966 -316.9375 1113.4375 C-321.069109 1117.01937309 -325.06929927 1120.73837958 -329.07958984 1124.45458984 C-333.17424371 1128.2463742 -337.30833007 1131.99087784 -341.46484375 1135.71484375 C-344.36913266 1138.33273129 -347.24770775 1140.97753203 -350.125 1143.625 C-353.36211029 1146.60224819 -356.6113792 1149.55953021 -359.9375 1152.4375 C-364.06755185 1156.01802312 -368.0660407 1159.73579762 -372.07519531 1163.45019531 C-377.00645654 1168.01596642 -381.99297968 1172.51744662 -387 1177 C-392.87802939 1182.27028483 -398.72500385 1187.57232185 -404.53857422 1192.91357422 C-408.47792546 1196.5298002 -412.44926265 1200.10882405 -416.4296875 1203.6796875 C-419.34428447 1206.31079783 -422.23539224 1208.96652475 -425.125 1211.625 C-428.36213091 1214.6022264 -431.61137856 1217.55952966 -434.9375 1220.4375 C-439.069109 1224.01937309 -443.06929927 1227.73837958 -447.07958984 1231.45458984 C-451.17693929 1235.24887039 -455.31410773 1238.99546447 -459.47265625 1242.72265625 C-462.33082242 1245.2980981 -465.16706617 1247.89689696 -468 1250.5 C-474.09983178 1256.10307436 -480.25561221 1261.64212966 -486.421875 1267.171875 C-490.97050196 1271.25694762 -495.49740064 1275.36425788 -500 1279.5 C-506.09995079 1285.10294652 -512.25561047 1290.6421281 -518.421875 1296.171875 C-522.97050196 1300.25694762 -527.49740064 1304.36425788 -532 1308.5 C-538.08774211 1314.09173257 -544.22812336 1319.62321355 -550.38671875 1325.13671875 C-555.17000184 1329.42703868 -559.91169911 1333.75817579 -564.625 1338.125 C-568.64383024 1341.84806467 -572.69889584 1345.51090997 -576.84375 1349.09375 C-579.77240362 1351.68284958 -582.63398177 1354.34194681 -585.5 1357 C-588.96287046 1360.21159642 -592.42648314 1363.4110278 -596 1366.5 C-600.11204293 1370.05683038 -604.0876962 1373.75583684 -608.07543945 1377.45043945 C-613.78888191 1382.74035759 -619.58121218 1387.93990467 -625.3828125 1393.1328125 C-630.12310993 1397.38536229 -634.82618085 1401.67470916 -639.5 1406 C-644.95632303 1411.04944313 -650.46150371 1416.04069286 -656 1421 C-661.22386674 1425.69149815 -666.43643678 1430.39446167 -671.625 1435.125 C-674.63781636 1437.86926449 -677.66249845 1440.59020429 -680.75 1443.25 C-685.45391428 1447.33190909 -689.96396682 1451.62196743 -694.50634766 1455.88134766 C-698.24850303 1459.38418458 -702.02796237 1462.82099819 -705.9140625 1466.1640625 C-708.82363123 1468.72491887 -711.65845566 1471.36412017 -714.5 1474 C-717.96283368 1477.2116335 -721.42648515 1480.41102953 -725 1483.5 C-729.11204293 1487.05683038 -733.0876962 1490.75583684 -737.07543945 1494.45043945 C-742.00664959 1499.01611034 -746.99348769 1503.51704453 -752 1508 C-758.07695448 1513.45764701 -764.13454524 1518.93526134 -770.1640625 1524.4453125 C-772.37016198 1526.43262526 -774.59415144 1528.38955516 -776.8359375 1530.3359375 C-780.98654203 1533.95830106 -785.00096688 1537.7118534 -789 1541.5 C-793.61859261 1545.87503402 -798.28960712 1550.15929393 -803.09375 1554.33007812 C-805.94830868 1556.83074173 -808.72416742 1559.41267897 -811.5 1562 C-815.58469759 1565.78988338 -819.7039735 1569.52175392 -823.91796875 1573.16796875 C-827.1372442 1576.00068955 -830.28454712 1578.91158486 -833.43994141 1581.81494141 C-836.58766618 1584.70982102 -839.75229526 1587.58376372 -842.9375 1590.4375 C-846.86827018 1593.96316666 -850.75212327 1597.53612684 -854.625 1601.125 C-858.66934564 1604.87140248 -862.74869639 1608.56045098 -866.91796875 1612.16796875 C-870.13646877 1615.00000723 -873.28293411 1617.91027948 -876.43774414 1620.81274414 C-879.60797718 1623.72804404 -882.79403325 1626.62390764 -886 1629.5 C-889.6438385 1632.77130549 -893.26674794 1636.06452761 -896.875 1639.375 C-897.37483398 1639.83358398 -897.87466797 1640.29216797 -898.38964844 1640.76464844 C-900.97777772 1643.14055444 -903.56371496 1645.51882624 -906.1484375 1647.8984375 C-911.00683585 1652.3673119 -915.88619701 1656.80137075 -920.875 1661.125 C-924.15586019 1664.01987664 -927.36429359 1666.99349472 -930.58251953 1669.95751953 C-933.31453913 1672.4692566 -936.0649953 1674.95091869 -938.875 1677.375 C-943.31000295 1681.21619502 -947.57512168 1685.23769045 -951.86450195 1689.23950195 C-955.48206416 1692.60848117 -959.14401664 1695.90693513 -962.88671875 1699.13671875 C-965.75951648 1701.6696661 -968.56561975 1704.2721088 -971.375 1706.875 C-976.87175817 1711.96774723 -982.41936558 1716.99917175 -988 1722 C-988.8559375 1722.7734375 -989.711875 1723.546875 -990.59375 1724.34375 C-995.3397472 1728.63230169 -1000.1209141 1732.8633837 -1005 1737 C-1008.7126211 1735.44823244 -1011.0552728 1733.18073002 -1013.87280273 1730.33837891 C-1014.34328033 1729.86658707 -1014.81375793 1729.39479523 -1015.29849243 1728.90870667 C-1016.84818077 1727.3525432 -1018.39076708 1725.78952642 -1019.93359375 1724.2265625 C-1021.01397895 1723.13990228 -1022.094884 1722.05375868 -1023.17628479 1720.96810913 C-1026.02104746 1718.1100543 -1028.86019246 1715.24648924 -1031.69775391 1712.38128662 C-1036.23441026 1707.80149829 -1040.7777472 1703.22836319 -1045.32444954 1698.65855026 C-1046.90716385 1697.06566229 -1048.48639048 1695.46937699 -1050.06529236 1693.87271118 C-1051.04267708 1692.88849292 -1052.02017468 1691.90438672 -1052.99780273 1690.92041016 C-1053.84511459 1690.06484528 -1054.69242645 1689.2092804 -1055.56541443 1688.32778931 C-1057.94169193 1686.05575031 -1060.4157226 1684.02902896 -1063 1682 C-1065.86166082 1679.28509102 -1068.47446212 1676.46039445 -1071 1673.4375 C-1073.43195146 1670.55772117 -1076.00554608 1668.30342609 -1079 1666 C-1081.86166082 1663.28509102 -1084.47446212 1660.46039445 -1087 1657.4375 C-1089.43195146 1654.55772117 -1092.00554608 1652.30342609 -1095 1650 C-1097.84085087 1647.30483379 -1100.43488409 1644.50444254 -1102.9375 1641.5 C-1105.70058057 1638.22681225 -1108.67143912 1635.69117688 -1112 1633 C-1113.67906238 1631.34582193 -1115.34302355 1629.67630087 -1117 1628 C-1118.17840478 1626.82500006 -1119.35799807 1625.65119143 -1120.53848076 1624.47827911 C-1121.20044767 1623.82001239 -1121.86241459 1623.16174567 -1122.5444411 1622.48353148 C-1123.25816635 1621.77389895 -1123.97189159 1621.06426642 -1124.70724487 1620.33312988 C-1126.30500843 1618.74416667 -1127.90275001 1617.15518135 -1129.50047302 1615.56617737 C-1130.35128386 1614.72001925 -1131.20209469 1613.87386112 -1132.07868767 1613.00206184 C-1151.04544287 1594.13803165 -1169.99697812 1575.25878621 -1188.93773692 1556.36865506 C-1191.73409285 1553.57980227 -1194.53058006 1550.79108116 -1197.32714844 1548.00244141 C-1197.8838282 1547.4473355 -1198.44050797 1546.8922296 -1199.01405682 1546.32030231 C-1208.04953995 1537.31098769 -1217.09555783 1528.31232148 -1226.14544164 1519.31747514 C-1235.4374678 1510.08148923 -1244.7181335 1500.83420269 -1253.98827755 1491.57625341 C-1259.70705864 1485.86571367 -1265.43458164 1480.16423904 -1271.17353137 1474.47396743 C-1275.5640429 1470.11881707 -1279.93869414 1465.74805455 -1284.30750465 1461.37114143 C-1286.10550891 1459.57479428 -1287.90870033 1457.78362258 -1289.71729469 1455.99793816 C-1292.17708939 1453.56779681 -1294.61790094 1451.12007961 -1297.05465698 1448.66687012 C-1298.14532134 1447.60242133 -1298.14532134 1447.60242133 -1299.25801933 1446.51646852 C-1299.90433976 1445.8582018 -1300.55066019 1445.19993508 -1301.21656609 1444.52172089 C-1301.78229706 1443.95826824 -1302.34802803 1443.39481559 -1302.93090236 1442.81428862 C-1304 1441 -1304 1441 -1303.80140603 1438.42955065 C-1302.71006431 1435.12102802 -1300.90890274 1433.55681389 -1298.375 1431.1875 C-1295.35800662 1428.28965446 -1292.40419034 1425.43201766 -1289.6875 1422.25 C-1286.39428271 1418.40139452 -1282.95655282 1414.70119136 -1279.5 1411 C-1275.52630657 1406.74091551 -1271.60360173 1402.45664754 -1267.796875 1398.046875 C-1264.98077081 1394.83896501 -1262.08098559 1391.70793801 -1259.19140625 1388.56640625 C-1254.75750649 1383.74378104 -1250.37376255 1378.87721724 -1246 1374 C-1240.72916984 1368.12245558 -1235.42768328 1362.27500173 -1230.08642578 1356.46142578 C-1227.20606171 1353.32368887 -1224.34483753 1350.16996182 -1221.5 1347 C-1215.42396473 1340.23203188 -1209.26181288 1333.54279743 -1203.1015625 1326.8515625 C-1198.6326881 1321.99316415 -1194.19862925 1317.11380299 -1189.875 1312.125 C-1186.97944007 1308.84336542 -1184.00519902 1305.6340938 -1181.0402832 1302.4152832 C-1178.54888198 1299.70564461 -1176.08846661 1296.97748399 -1173.6875 1294.1875 C-1169.62993304 1289.50115753 -1165.3577815 1285.01441626 -1161.1184082 1280.4934082 C-1157.61566629 1276.75132239 -1154.1789265 1272.97195009 -1150.8359375 1269.0859375 C-1148.27508065 1266.17636823 -1145.63586456 1263.34155922 -1143 1260.5 C-1139.21111404 1256.41435564 -1135.47827887 1252.29606439 -1131.83203125 1248.08203125 C-1128.99999277 1244.86353123 -1126.08972052 1241.71706589 -1123.18725586 1238.56225586 C-1120.27195596 1235.39202282 -1117.37609236 1232.20596675 -1114.5 1229 C-1110.72462783 1224.79315673 -1106.91019552 1220.62325147 -1103.0859375 1216.4609375 C-1100.20577393 1213.32332914 -1097.34468386 1210.16979059 -1094.5 1207 C-1091.18998278 1203.3116951 -1087.852855 1199.64934235 -1084.5 1196 C-1079.63056955 1190.69878077 -1074.80576976 1185.35895189 -1070 1180 C-1064.68335741 1174.07136978 -1059.33233263 1168.17738616 -1053.94140625 1162.31640625 C-1051.46439877 1159.61737009 -1049.01879359 1156.89800842 -1046.625 1154.125 C-1042.78380498 1149.68999705 -1038.76230955 1145.42487832 -1034.76049805 1141.13549805 C-1031.39151883 1137.51793584 -1028.09306487 1133.85598336 -1024.86328125 1130.11328125 C-1021.81950528 1126.66111605 -1018.67711054 1123.30024047 -1015.54931641 1119.92431641 C-1010.98375873 1114.99317138 -1006.4824001 1110.00684911 -1002 1105 C-996.72971517 1099.12197061 -991.42767815 1093.27499615 -986.08642578 1087.46142578 C-983.20606171 1084.32368887 -980.34483753 1081.16996182 -977.5 1078 C-974.18998278 1074.3116951 -970.852855 1070.64934235 -967.5 1067 C-961.90818248 1060.91233721 -956.37678528 1054.77187534 -950.86328125 1048.61328125 C-946.57296082 1043.82999761 -942.24179765 1039.08832592 -937.875 1034.375 C-934.12614255 1030.32791151 -930.43547742 1026.24509135 -926.82421875 1022.07421875 C-923.10339848 1017.84347878 -919.26418021 1013.71809608 -915.44824219 1009.57324219 C-913.08808305 1007.0093741 -910.73088342 1004.44279704 -908.375 1001.875 C-907.91641602 1001.37516602 -907.45783203 1000.87533203 -906.98535156 1000.36035156 C-903.4049854 996.45287129 -899.85931371 992.51522066 -896.3203125 988.5703125 C-893.68920193 985.65571526 -891.03345583 982.76462591 -888.375 979.875 C-885.37815586 976.6161367 -882.40085344 973.34500325 -879.5 970 C-876.13542128 966.12027047 -872.66411092 962.34142491 -869.1875 958.5625 C-866.27210044 955.39220211 -863.37616922 952.20605243 -860.5 949 C-856.72462783 944.79315673 -852.91019552 940.62325147 -849.0859375 936.4609375 C-845.46992343 932.52170429 -841.89102241 928.5505662 -838.3203125 924.5703125 C-835.68920217 921.65571553 -833.03347525 918.76460776 -830.375 915.875 C-827.3977736 912.63786909 -824.44047034 909.38862144 -821.5625 906.0625 C-817.97995191 901.93011239 -814.26032872 897.9290721 -810.54321289 893.91821289 C-807.50258406 890.63497817 -804.48587504 887.33332232 -801.5 884 C-797.99645613 880.08877103 -794.44415551 876.22616286 -790.875 872.375 C-787.70532707 868.95364088 -784.5515448 865.5278835 -781.5 862 C-778.44845091 858.47211154 -775.29457847 855.04645247 -772.125 851.625 C-765.90877486 844.91418166 -759.73369724 838.17002151 -753.75 831.25 C-749.86087929 826.77932853 -745.80262354 822.46813572 -741.76098633 818.13598633 C-738.39431663 814.52097563 -735.09738047 810.86229905 -731.87109375 807.12109375 C-728.77753277 803.61419686 -725.57988831 800.20330955 -722.39990234 796.77490234 C-719.74390572 793.90609347 -717.1160282 791.02357385 -714.5625 788.0625 C-710.74543092 783.64520384 -706.74215055 779.40324809 -702.76025391 775.13525391 C-699.39137145 771.51775977 -696.09298942 767.85589593 -692.86328125 764.11328125 C-689.81813958 760.65956711 -686.67446463 757.29704279 -683.54492188 753.91992188 C-679.75084511 749.82269791 -676.00438191 745.68572087 -672.27734375 741.52734375 C-669.70190225 738.66917797 -667.10314236 735.83289739 -664.5 733 C-660.41079455 728.54938022 -656.35630885 724.06921883 -652.3203125 719.5703125 C-649.68920217 716.65571553 -647.03347525 713.76460776 -644.375 710.875 C-641.3977736 707.63786909 -638.44047034 704.38862144 -635.5625 701.0625 C-631.93720464 696.87812295 -628.16485565 692.8340263 -624.40039062 688.77539062 C-621.74420381 685.90644291 -619.11617892 683.02374863 -616.5625 680.0625 C-613.30075647 676.28785332 -609.90260246 672.64711228 -606.5 669 C-602.52402277 664.73798929 -598.59966181 660.45034742 -594.7890625 656.0390625 C-590.14194968 650.74257147 -585.31622478 645.60072664 -580.54296875 640.41796875 C-575.59152074 635.03944166 -570.6634139 629.65009296 -565.875 624.125 C-562.59147545 620.40367217 -559.21144055 616.77002978 -555.84375 613.125 C-553.73177953 610.82430025 -551.6723941 608.48330322 -549.625 606.125 C-545.41384543 601.29388265 -541.01216656 596.65201913 -536.60546875 592 C-532.87091056 588.04121368 -529.23770809 584.01582602 -525.66992188 579.90625 C-523.16925882 577.05169194 -520.58733622 574.27581766 -518 571.5 C-514.7875331 568.03798265 -511.58893335 564.57347192 -508.5 561 C-504.89850036 556.83355923 -501.14479539 552.81237288 -497.40014648 548.77514648 C-494.74405476 545.9062682 -492.11610356 543.02366124 -489.5625 540.0625 C-485.74543092 535.64520384 -481.74215055 531.40324809 -477.76025391 527.13525391 C-474.39137145 523.51775977 -471.09298942 519.85589593 -467.86328125 516.11328125 C-464.81950528 512.66111605 -461.67711054 509.30024047 -458.54931641 505.92431641 C-453.98375873 500.99317138 -449.4824001 496.00684911 -445 491 C-440.15529061 485.59662142 -435.28790925 480.21635577 -430.375 474.875 C-427.39781719 471.63782784 -424.44047144 468.38862271 -421.5625 465.0625 C-417.98062691 460.930891 -414.26162042 456.93070073 -410.54541016 452.92041016 C-406.7536258 448.82575629 -403.00912216 444.69166993 -399.28515625 440.53515625 C-396.66726871 437.63086734 -394.02246797 434.75229225 -391.375 431.875 C-388.39775181 428.63788971 -385.44046979 425.3886208 -382.5625 422.0625 C-379.00438333 417.95959992 -375.31386833 413.98392466 -371.62451172 409.99951172 C-362.54293225 400.19522506 -362.54293225 400.19522506 -353.6875 390.1875 C-349.82296454 385.73548172 -345.78377844 381.44812062 -341.76293945 377.13793945 C-338.36845451 373.4927728 -335.04202729 369.80416426 -331.78515625 366.03515625 C-326.60091438 360.12489363 -321.21371224 354.38807164 -315.87109375 348.62109375 C-311.14824921 343.52118756 -306.45226193 338.41536184 -301.90625 333.15625 C-299.31714998 330.22759587 -296.65803766 327.36603327 -294 324.5 C-290.20865663 320.41161489 -286.47422101 316.2898388 -282.82421875 312.07421875 C-278.15981539 306.77058238 -273.32759752 301.61307506 -268.54296875 296.41796875 C-261.97964066 289.30594897 -261.97964066 289.30594897 -255.5625 282.0625 C-251.98062691 277.930891 -248.26162042 273.93070073 -244.54541016 269.92041016 C-240.75112961 265.82306071 -237.00453553 261.68589227 -233.27734375 257.52734375 C-230.70190225 254.66917797 -228.10314236 251.83289739 -225.5 249 C-221.41079455 244.54938022 -217.35630885 240.06921883 -213.3203125 235.5703125 C-210.68920217 232.65571553 -208.03347525 229.76460776 -205.375 226.875 C-202.3977736 223.63786909 -199.44047034 220.38862144 -196.5625 217.0625 C-193.00438333 212.95959992 -189.31386833 208.98392466 -185.62451172 204.99951172 C-179.55196812 198.44101277 -173.47827542 191.88094922 -167.625 185.125 C-164.01952682 180.97530445 -160.28166416 176.95235701 -156.5456543 172.9206543 C-152.75127187 168.82324211 -149.00461234 164.68597797 -145.27734375 160.52734375 C-142.70190225 157.66917797 -140.10314236 154.83289739 -137.5 152 C-133.41079455 147.54938022 -129.35630885 143.06921883 -125.3203125 138.5703125 C-122.68920217 135.65571553 -120.03347525 132.76460776 -117.375 129.875 C-114.3977736 126.63786909 -111.44047034 123.38862144 -108.5625 120.0625 C-104.98197688 115.93244815 -101.26420238 111.9339593 -97.54980469 107.92480469 C-92.98402068 102.99352953 -88.48350905 98.00617677 -84 93 C-81.74696059 90.49531221 -79.49261767 87.99180166 -77.23828125 85.48828125 C-75.77560745 83.86223726 -74.31459667 82.23469538 -72.85546875 80.60546875 C-68.09951315 75.30107863 -63.28747712 70.05237928 -58.44873047 64.82373047 C-53.91903385 59.92414475 -49.45069881 54.97143871 -45 50 C-37.43098341 41.55815987 -29.78093514 33.19286086 -22.1015625 24.8515625 C-16.99278965 19.29779277 -11.93935101 13.70559878 -7 8 C-5.68823285 6.49935908 -4.37574214 4.99935031 -3.0625 3.5 C-2.47597656 2.8296875 -1.88945313 2.159375 -1.28515625 1.46875 C-0.64900391 0.74171875 -0.64900391 0.74171875 0 0 Z " fill="#FEFEFE" transform="translate(1632,929)"/>
<path d="M0 0 C3.37078559 0.01132459 6.74125273 0.00464744 10.11202717 -0.00687695 C33.65055764 -0.07504582 57.16296192 0.86738962 80.50390625 4.07324219 C82.40305786 4.32654297 82.40305786 4.32654297 84.34057617 4.58496094 C118.17879961 9.22765014 150.44844042 17.11720565 182.9765625 27.33349609 C185.45081217 28.10731034 187.92904794 28.86483247 190.41015625 29.61621094 C233.09475736 42.85465324 274.4907844 64.20462203 311.94140625 88.26074219 C312.53308594 88.64037109 313.12476562 89.02 313.734375 89.41113281 C350.36825643 113.06486119 383.19628959 141.47017171 414.00390625 172.19824219 C414.88712051 173.0774382 414.88712051 173.0774382 415.78817749 173.97439575 C422.05984261 180.22440162 428.23969061 186.47788421 433.94140625 193.26074219 C434.8535393 194.31727372 435.76627287 195.37328719 436.6796875 196.42871094 C442.58808584 203.35919944 448.24261465 210.42758794 453.73828125 217.68847656 C454.87135469 219.16919753 456.03059389 220.62979054 457.19140625 222.08886719 C489.20764114 262.54181263 513.26702794 308.79458473 532.94140625 356.26074219 C533.30830566 357.13778809 533.67520508 358.01483398 534.05322266 358.91845703 C539.20019471 371.33794251 543.20694662 384.12023688 547.19140625 396.94824219 C547.44825195 397.76950592 547.70509766 398.59076965 547.96972656 399.43692017 C551.14729045 409.6379353 553.8516347 419.82619528 556.06738281 430.27807617 C556.7451929 433.44829473 557.55504417 436.54852297 558.47265625 439.65917969 C560.79843204 447.91568376 562.02617791 456.43641994 563.44140625 464.88574219 C563.59547943 465.80001984 563.74955261 466.71429749 563.90829468 467.65628052 C569.60097178 501.54327246 572.11959388 535.04622191 572.12890625 569.38574219 C572.12990326 570.35965912 572.13090027 571.33357605 572.13192749 572.33700562 C572.12980659 590.57921127 571.01324016 608.52207335 568.87890625 626.63574219 C568.77325348 627.53248657 568.66760071 628.42923096 568.55874634 629.35314941 C559.96003296 701.14755856 538.12397243 772.62011081 502.39892578 835.67675781 C500.9643393 838.220085 499.55799114 840.7773198 498.15625 843.33886719 C486.16135168 865.05036137 471.99226107 885.56538011 456.94140625 905.26074219 C456.45623535 905.89753906 455.97106445 906.53433594 455.47119141 907.19042969 C446.26996145 919.21768373 436.41171364 930.66002985 426.171875 941.81152344 C424.22237606 943.95221667 422.32437321 946.12425281 420.44140625 948.32324219 C416.19811722 953.21777941 411.56102125 957.72478219 406.94140625 962.26074219 C401.9697882 958.09228775 397.29300364 953.75362394 392.71737671 949.15696716 C392.02480322 948.46524809 391.33222972 947.77352903 390.61866915 947.06084877 C388.31420133 944.75801917 386.01330993 942.45165012 383.71240234 940.14526367 C382.05469385 938.48727291 380.39676474 936.82950271 378.7386322 935.17193604 C374.24694309 930.68053346 369.75834125 926.18605701 365.2702899 921.69101977 C361.04664027 917.46174299 356.82067567 913.23478115 352.59472544 909.00780345 C344.22232415 900.63321669 335.85215497 892.2564027 327.48339844 883.87817383 C319.36965875 875.75526012 311.25487383 867.63339296 303.13867188 859.51293945 C302.6385357 859.01254056 302.13839953 858.51214166 301.62310772 857.99657916 C299.11316715 855.48533318 296.60320576 852.97410801 294.09323382 850.46289337 C276.79682449 833.15787864 259.50261993 815.85066241 242.21070862 798.54115295 C241.48141289 797.81111764 240.75211717 797.08108232 240.00072157 796.32892472 C238.65961125 794.98644194 237.31851439 793.64394573 235.97743452 792.30143255 C234.81791786 791.14071274 233.65804248 789.98035111 232.49772334 788.8204335 C231.05536184 787.37494484 229.62010114 785.92238017 228.18546486 784.46922398 C225.91201534 782.15829856 225.91201534 782.15829856 223.06640625 779.94824219 C220.82563037 778.11234704 218.97650117 776.19954249 217.12189579 773.97651196 C211.39711735 767.36943346 205.11208224 761.29365393 198.92857361 755.1209259 C197.49116642 753.68236563 196.05397715 752.24358757 194.61698633 750.80461138 C190.67888386 746.86234151 186.73767722 742.92318795 182.79594076 738.98455203 C178.5412163 734.73209194 174.28937258 730.47675319 170.03715515 726.2217865 C162.19248016 718.37292294 154.34553189 710.526336 146.49739325 702.68093607 C139.24785227 695.43391245 131.99924366 688.18595789 124.7515583 680.93707848 C124.27046155 680.45590534 123.7893648 679.9747322 123.29368935 679.47897806 C121.34069405 677.52567141 119.38770228 675.57236123 117.43471631 673.61904525 C99.12328118 655.30455272 80.80893382 636.99297487 62.49327779 618.68270362 C46.22345493 602.41762771 29.95622122 586.14996657 13.69116211 569.88012695 C-4.58904167 551.59456832 -22.87086023 533.31062664 -41.15528673 515.02929038 C-43.10438152 513.0805163 -45.05347238 511.13173828 -47.00256157 509.1829586 C-47.4824679 508.70313135 -47.96237422 508.2233041 -48.45682317 507.72893664 C-55.70223392 500.48466311 -62.94641049 493.23915699 -70.18998909 485.99305153 C-78.42510581 477.75507637 -86.66205423 469.51893664 -94.90126521 461.28505615 C-99.10574332 457.08320848 -103.30941358 452.88056092 -107.51092529 448.67574692 C-111.35584087 444.82785501 -115.20305124 440.98227324 -119.05211692 437.13853284 C-120.4452054 435.74656279 -121.83744893 434.35374651 -123.22876704 432.96000693 C-125.11855367 431.0671834 -127.01138822 429.17746044 -128.90501499 427.2884798 C-129.44556419 426.74558944 -129.98611339 426.20269907 -130.54304287 425.64335749 C-133.89911294 422.30374513 -137.40136797 419.26722315 -141.05859375 416.26074219 C-142.16626378 415.07840963 -143.24267141 413.8653385 -144.27294922 412.61499023 C-148.78362503 407.33572438 -153.70835799 402.48618569 -158.62890625 397.59277344 C-159.63847551 396.58507519 -160.64781982 395.57715154 -161.6569519 394.5690155 C-164.29296784 391.93678403 -166.93197048 389.30756765 -169.57165527 386.67901611 C-172.25271379 384.0082108 -174.93092889 381.33455755 -177.609375 378.66113281 C-182.3233614 373.95666638 -187.03980192 369.2546751 -191.75808716 364.55451965 C-195.90663507 360.4181065 -200.0455934 356.27219734 -204.1809082 352.12255859 C-209.11958019 347.16754051 -214.06079931 342.21507077 -219.00347614 337.26404762 C-221.983713 334.27859494 -224.96300705 331.29221377 -227.94018555 328.30371094 C-230.83555795 325.39740232 -233.73343035 322.49360745 -236.63298607 319.59147263 C-237.72974724 318.49287966 -238.82563575 317.3934147 -239.92058754 316.29301834 C-245.25983715 310.92826625 -250.61381803 305.64400052 -256.36930847 300.71972656 C-260.6442873 297.02755722 -264.56522019 292.93871359 -268.55859375 288.94824219 C-269.47640625 288.04267578 -270.39421875 287.13710938 -271.33984375 286.20410156 C-272.20609375 285.33978516 -273.07234375 284.47546875 -273.96484375 283.58496094 C-274.75181641 282.80209717 -275.53878906 282.0192334 -276.34960938 281.21264648 C-278.05859375 279.26074219 -278.05859375 279.26074219 -278.05859375 277.26074219 C-278.89003906 276.93589844 -278.89003906 276.93589844 -279.73828125 276.60449219 C-282.8023388 274.83002115 -284.87869223 272.39344827 -287.18359375 269.76074219 C-288.15707649 268.67451098 -289.13237364 267.58990344 -290.109375 266.50683594 C-290.60002441 265.96269043 -291.09067383 265.41854492 -291.59619141 264.85791016 C-296.18030097 259.85135844 -300.92836626 254.87022889 -306.24609375 250.63574219 C-308.55019692 248.69005506 -310.31884331 246.87720797 -312.25440979 244.59936523 C-315.91402488 240.37494396 -319.77671262 236.40803411 -323.73803711 232.46777344 C-324.47057709 231.73508743 -325.20311707 231.00240143 -325.95785522 230.24751282 C-328.35235038 227.85370801 -330.75035573 225.46345349 -333.1484375 223.07324219 C-334.8201703 221.40337669 -336.4916808 219.73328862 -338.16297913 218.06298828 C-342.54190511 213.68786286 -346.92382691 209.31575012 -351.30639648 204.9442749 C-355.78616884 200.47476979 -360.26307782 196.00239855 -364.74023438 191.53027344 C-373.51023343 182.77096826 -382.28340262 174.01484566 -391.05859375 165.26074219 C-390.09737768 164.13463407 -389.13549936 163.0090912 -388.17333984 161.88378906 C-387.63776459 161.25694214 -387.10218933 160.63009521 -386.55038452 159.98425293 C-382.19966174 154.95773206 -377.31077967 150.53393989 -372.28125 146.20214844 C-369.72882492 143.97270158 -367.23971861 141.68072837 -364.74609375 139.38574219 C-359.34698715 134.46390468 -353.75641832 129.83069826 -348.05859375 125.26074219 C-347.28257813 124.6278125 -346.5065625 123.99488281 -345.70703125 123.34277344 C-343.17646689 121.29039264 -340.62272175 119.27104731 -338.05859375 117.26074219 C-336.50978516 116.04064453 -336.50978516 116.04064453 -334.9296875 114.79589844 C-325.90206189 107.80408681 -316.48691176 101.41201522 -306.99609375 95.07324219 C-306.05703186 94.44415955 -306.05703186 94.44415955 -305.09899902 93.80236816 C-293.21780093 85.85643309 -281.07993787 78.34977044 -268.55859375 71.44824219 C-267.8205249 71.04138184 -267.08245605 70.63452148 -266.32202148 70.21533203 C-263.90466516 68.89004786 -261.48252409 67.57396134 -259.05859375 66.26074219 C-257.76719482 65.55860596 -257.76719482 65.55860596 -256.44970703 64.84228516 C-192.822797 30.42230181 -121.96341727 9.41636382 -50.05859375 2.26074219 C-49.29591187 2.17816162 -48.53322998 2.09558105 -47.74743652 2.01049805 C-31.82762293 0.29955121 -16.00130563 -0.0542031 0 0 Z " fill="#FEFEFE" transform="translate(2284.05859375,150.7392578125)"/>
<path d="M0 0 C7.02065522 5.74349255 13.33030042 12.19026246 19.73053646 18.60190201 C21.03460861 19.90462686 22.33889915 21.20713314 23.64338771 22.50944102 C27.2343917 26.09571568 30.82227429 29.68509906 34.40966077 33.27499186 C38.31030325 37.17726678 42.21383042 41.07665429 46.11698967 44.97641158 C52.95956485 51.81383051 59.80026741 58.65311851 66.63975143 65.49362946 C76.33413928 75.18946934 86.03104721 84.88278563 95.7286607 94.57539914 C115.42781679 114.26441344 135.1234333 133.95696589 154.8178122 153.65075853 C156.93716254 155.77004413 159.05651447 157.88932812 161.1758678 160.00861073 C161.70177689 160.53450281 162.22768598 161.0603949 162.76953172 161.60222312 C174.42226831 173.2545513 186.07589542 184.90598868 197.72968082 196.55726791 C202.52768713 201.35424589 207.3256743 206.15124302 212.12366539 210.94823623 C212.65378607 211.47824631 213.18390674 212.0082564 213.73009168 212.5543274 C244.10489258 242.92280494 274.47859462 273.29238117 304.85000515 303.66424942 C305.98648158 304.80074163 307.12295803 305.93723382 308.2594345 307.07372598 C313.39060827 312.20497313 318.52177464 317.33622767 323.65293893 322.46748429 C325.94109507 324.75568156 328.22925171 327.04387834 330.51740839 329.33207507 C331.66267041 330.47735748 332.80793211 331.6226402 333.9531935 332.76792324 C370.19086307 369.00627349 406.43253335 405.24061813 442.67749023 441.47167969 C451.8142331 450.60492169 460.95096023 459.73817943 470.08759975 468.87152481 C470.65013836 469.43386054 471.21267696 469.99619627 471.79226219 470.57557248 C489.12004159 487.89714047 506.4465993 505.21992974 523.77190495 522.54397202 C524.31554468 523.0875718 524.85918442 523.63117159 525.4192981 524.1912441 C537.3511826 536.1222755 549.28277125 548.05360273 561.21408675 559.98520314 C565.48278346 564.25399633 569.75150239 568.52276731 574.02023225 572.79152736 C575.08221907 573.85352209 576.14420474 574.91551797 577.20618926 575.977515 C594.14921402 592.9207163 611.09517847 609.86097376 628.04260259 626.79977451 C645.10049347 643.84902985 662.15517266 660.90149111 679.20543869 677.95837194 C689.79137855 688.54841742 700.38000156 699.135761 710.97310214 709.71864385 C717.71917153 716.45875285 724.4616483 723.2024411 731.20112748 729.94913968 C735.04958574 733.801513 738.89966022 737.65223448 742.75408452 741.49863937 C746.25257822 744.98991726 749.74653219 748.48566919 753.2367456 751.98522432 C754.49987434 753.25009059 755.76472253 754.51324238 757.03138867 755.77456619 C758.73717677 757.47363441 760.43680839 759.17862219 762.13491243 760.88536477 C762.63511798 761.3806707 763.13532353 761.87597663 763.65068682 762.38629183 C767 765.77168925 767 765.77168925 767 768 C754.73730504 775.62960909 741.6027415 781.49322802 728.46679688 787.43212891 C726.31240736 788.40645915 724.15973066 789.38459748 722.00976562 790.36865234 C698.10599281 801.29020372 673.25128328 810.3228357 647.88818359 817.20556641 C644.94287288 818.01571358 642.01284788 818.86947848 639.08203125 819.73046875 C619.99160734 825.23457553 600.56531209 828.68674304 581 832 C579.94973633 832.18046875 578.89947266 832.3609375 577.81738281 832.546875 C549.7660777 837.28161693 521.1365803 838.61961919 492.73095703 838.56664276 C490.45018812 838.5624075 488.16944424 838.56275702 485.88867188 838.56304932 C458.82955475 838.53735374 432.35088629 836.59954506 405.59509277 832.39520264 C403.08756352 832.01333491 400.57822666 831.66706768 398.06347656 831.33642578 C370.82733698 827.75272321 370.82733698 827.75272321 362.65283203 818.02124023 C361.83879876 816.94474746 361.043015 815.85422253 360.265625 814.75097656 C355.55728438 808.23704545 349.72007632 802.61049631 344 797 C340.07281639 793.1480498 336.20736097 789.30302286 332.625 785.125 C328.34468391 780.15556273 323.66986364 775.60016418 319 771 C313.74992084 765.82828024 308.62928228 760.6496079 303.83203125 755.0546875 C300.08310793 750.8501381 296.0115541 746.95168016 292 743 C286.72945434 737.8081192 281.58570143 732.60917286 276.76953125 726.9921875 C273.36011732 723.15377447 269.65936686 719.59796808 266 716 C257.43392328 707.5776494 257.43392328 707.5776494 253.5625 703.0625 C249.30694217 698.11075644 244.64873352 693.57934943 240 689 C234.72945434 683.8081192 229.58570143 678.60917286 224.76953125 672.9921875 C221.36011732 669.15377447 217.65936686 665.59796808 214 662 C205.43304454 653.57678541 205.43304454 653.57678541 201.625 649.125 C197.04628087 643.79722774 191.99862805 638.92827203 187 634 C181.39223632 628.47116597 175.85694194 622.94555593 170.734375 616.95703125 C167.34048426 613.12743832 163.64725759 609.586062 160 606 C151.43392328 597.5776494 151.43392328 597.5776494 147.5625 593.0625 C143.30694217 588.11075644 138.64873352 583.57934943 134 579 C128.72945434 573.8081192 123.58570143 568.60917286 118.76953125 562.9921875 C115.36011732 559.15377447 111.65936686 555.59796808 108 552 C99.43392328 543.5776494 99.43392328 543.5776494 95.5625 539.0625 C91.30694217 534.11075644 86.64873352 529.57934943 82 525 C76.70898505 519.78795543 71.54211526 514.56873161 66.70703125 508.9296875 C63.63604413 505.45813684 60.30753739 502.24417461 57 499 C53.09382094 495.16865196 49.24586142 491.34739394 45.6875 487.1875 C41.08354411 481.84231765 36.01979735 476.94914337 31 472 C25.4128597 466.49149908 19.90049117 460.98590158 14.796875 455.01953125 C11.06363526 450.82369441 6.99942929 446.93973632 3 443 C-2.26031206 437.81820006 -7.39250747 432.62939118 -12.19921875 427.0234375 C-15.77825901 423.00186948 -19.66457869 419.27483014 -23.5 415.5 C-28.59583059 410.48467226 -33.54623142 405.44810942 -38.20410156 400.02294922 C-41.67053168 396.11826733 -45.41435947 392.48314192 -49.125 388.8125 C-50.30255859 387.64170898 -50.30255859 387.64170898 -51.50390625 386.44726562 C-52.26832031 385.68736328 -53.03273438 384.92746094 -53.8203125 384.14453125 C-54.54661865 383.41226318 -55.2729248 382.67999512 -56.02124023 381.92553711 C-58.08512686 379.85307937 -58.08512686 379.85307937 -60.91796875 377.6796875 C-64.2582764 373.38052981 -64.49634198 368.61348451 -65.1875 363.3125 C-65.34911621 362.18473145 -65.51073242 361.05696289 -65.67724609 359.89501953 C-66.14122686 356.59930175 -66.57479926 353.30091421 -67 350 C-67.10940918 349.19836426 -67.21881836 348.39672852 -67.33154297 347.57080078 C-68.03582416 342.39142428 -68.54613033 337.20678507 -69 332 C-69.09023437 331.03271973 -69.18046875 330.06543945 -69.2734375 329.06884766 C-70.93044926 310.69337095 -71.18846396 292.37830851 -71.1875 273.9375 C-71.18840637 272.8170932 -71.18931274 271.6966864 -71.19024658 270.54232788 C-71.18836487 249.98142729 -70.74247747 229.54215046 -68.1875 209.125 C-68.09874603 208.40065765 -68.00999207 207.67631531 -67.91854858 206.93002319 C-61.19799528 152.19167914 -47.04038666 98.05737442 -24.24121094 47.75146484 C-22.99774407 44.99499914 -21.78167286 42.22773744 -20.5703125 39.45703125 C-5.67714308 5.67714308 -5.67714308 5.67714308 0 0 Z " fill="#FEFEFE" transform="translate(1799,440)"/>
<path d="M0 0 C0.59554688 0.515625 1.19109375 1.03125 1.8046875 1.5625 C2.7946875 2.284375 3.7846875 3.00625 4.8046875 3.75 C17.70049438 14.71143585 24.89318249 32.27389203 27.8046875 48.5625 C29.42647589 69.9410264 25.93614223 90.43779875 11.77407181 107.28162628 C5.52824774 114.51532662 -0.95648201 121.47160084 -7.72042847 128.22132874 C-8.52890043 129.03206626 -9.3373724 129.84280378 -10.17034352 130.67810911 C-12.85063 133.36467077 -15.53442139 136.04770184 -18.21826172 138.73071289 C-20.15292482 140.66783114 -22.08685664 142.60567893 -24.02084351 144.54347229 C-28.71147654 149.24236825 -33.40484295 153.93852455 -38.09932934 158.6335705 C-41.91790536 162.45262356 -45.73568685 166.2724691 -49.5529213 170.09286308 C-60.39857189 180.94730669 -71.24630242 191.79966546 -82.09672628 202.6493376 C-82.68017282 203.23274418 -83.26361936 203.81615076 -83.86474609 204.41723633 C-84.44891289 205.00136224 -85.03307969 205.58548816 -85.63494851 206.18731486 C-95.10449097 215.65645076 -104.56903236 225.13056784 -114.03132211 234.60695071 C-123.76970439 244.3597218 -133.51183621 254.10873369 -143.25784695 263.85388178 C-148.72045626 269.31616008 -154.18153727 274.77994582 -159.63857651 280.24778938 C-164.28324675 284.90159744 -168.93141301 289.55187915 -173.58403479 294.19773824 C-175.95350498 296.56396033 -178.32081494 298.93223746 -180.68484497 301.30390167 C-212.17554755 332.88966558 -212.17554755 332.88966558 -235.1953125 338.5625 C-236.03449219 338.78679687 -236.87367187 339.01109375 -237.73828125 339.2421875 C-256.4316486 343.69444139 -276.30829098 339.21416903 -292.5703125 329.55859375 C-310.50363834 317.73697919 -324.28769972 300.54437267 -328.79174805 279.21069336 C-332.14317178 257.21862244 -328.86021792 236.8698294 -316.1953125 218.5625 C-307.12426027 207.59418541 -296.55470071 197.75877407 -286.50955737 187.70204306 C-283.98766168 185.17619146 -281.46857924 182.64753633 -278.9490509 180.11932373 C-272.88939362 174.0400659 -266.82503652 167.96550726 -260.7600359 161.89158094 C-258.47043562 159.598462 -256.18114887 157.3050302 -253.89187752 155.0115829 C-243.78152783 144.88279482 -233.66983492 134.75534994 -223.55411625 124.63192368 C-221.0885581 122.16445614 -218.62300548 119.69698308 -216.1574707 117.22949219 C-215.54479107 116.61632882 -214.93211144 116.00316545 -214.30086576 115.37142137 C-204.36374252 105.42598751 -194.43517759 95.4720553 -184.51013059 85.5145714 C-174.29288376 75.26420772 -164.06807816 65.0214333 -153.83585542 54.78601861 C-148.10175633 49.04976049 -142.37095231 43.31029516 -136.64860725 37.56230927 C-131.77972491 32.67165795 -126.90399145 27.78796709 -122.01936729 22.91303608 C-119.53175395 20.42994726 -117.04739475 17.94382965 -114.57182312 15.44873047 C-82.98148396 -16.35000614 -38.2845937 -32.36131694 0 0 Z " fill="#000000" transform="translate(1721.1953125,1262.4375)"/>
<path d="M0 0 C2.84115276 1.29237417 4.89819155 2.64878944 7.10029221 4.85419655 C7.98482909 5.73276029 7.98482909 5.73276029 8.8872354 6.62907279 C9.5253724 7.27303547 10.1635094 7.91699815 10.82098389 8.58047485 C11.50635483 9.26413695 12.19172577 9.94779904 12.89786553 10.65217817 C15.19808604 12.94909885 17.4910755 15.25310531 19.78417969 17.55712891 C21.42963945 19.20315267 23.07553946 20.84873644 24.72184753 22.49391174 C29.19496617 26.96645546 33.66188215 31.44514843 38.12773418 35.92494631 C42.32142996 40.12986179 46.51972172 44.33017919 50.7180014 48.53051727 C59.03320354 56.85009634 67.3439298 65.17413167 75.65185547 73.50097656 C83.72210264 81.58958256 91.79444831 89.67608473 99.86962891 97.75976562 C100.36740627 98.25806844 100.86518364 98.75637125 101.37804517 99.26977415 C103.87526811 101.76960717 106.3725324 104.26939888 108.86981726 106.76917005 C129.58629281 127.50637805 150.29543789 148.25089733 171 169 C169.12944789 173.18224093 166.34523991 175.36024625 162.75 178.0625 C161.47380334 179.042767 160.19776605 180.0232415 158.921875 181.00390625 C158.26896484 181.50164551 157.61605469 181.99938477 156.94335938 182.51220703 C153.93912145 184.81218516 150.97052385 187.15675514 148 189.5 C146.83874565 190.41301992 145.67728642 191.32577931 144.515625 192.23828125 C143.93876953 192.69154785 143.36191406 193.14481445 142.76757812 193.61181641 C140.96544644 195.02713695 139.1624999 196.44141385 137.359375 197.85546875 C130.00159252 203.62730862 122.66879181 209.42783924 115.38964844 215.29882812 C108.10405573 221.17470155 100.76917882 226.96726058 93.3125 232.625 C87.45425467 237.07119424 81.77523615 241.65231055 76.16015625 246.40234375 C71.6338618 250.17401014 66.9065196 253.68952542 62.21362305 257.24951172 C57.29638889 260.98698508 52.48474468 264.82682767 47.7265625 268.765625 C42.22719039 273.27227378 36.60065643 277.62039033 31 282 C28.68643778 283.81114807 26.37397815 285.62369292 24.0625 287.4375 C23.4950708 287.88270996 22.9276416 288.32791992 22.34301758 288.78662109 C17.1931871 292.83441535 12.07807497 296.92512405 6.97290039 301.02905273 C5.81695828 301.95711137 4.6579157 302.88132782 3.49511719 303.80078125 C2.24407541 304.80422952 1.02752535 305.85047962 -0.1796875 306.90625 C-2 308 -2 308 -3.77245617 307.88502216 C-6.98408163 306.60901598 -9.07224848 304.34767908 -11.46101379 301.93339539 C-12.00008242 301.40041786 -12.53915104 300.86744034 -13.09455508 300.31831199 C-14.90203742 298.52750128 -16.6985961 296.72611914 -18.49536133 294.92456055 C-19.78759103 293.63966857 -21.08044289 292.35540206 -22.37387085 291.07171631 C-25.88691825 287.58092049 -29.39022781 284.08050433 -32.89121842 280.57762122 C-35.81140878 277.65731138 -38.73592384 274.74135134 -41.66034144 271.82527572 C-48.55594169 264.94892128 -55.4433223 258.06440784 -62.32592773 251.17504883 C-69.43592429 244.0584045 -76.56056463 236.95666277 -83.69239026 229.86190003 C-89.8083772 223.77655114 -95.91471614 217.68163777 -102.01345271 211.57900077 C-105.65909794 207.9312826 -109.30846357 204.28748634 -112.96732521 200.65302086 C-116.4052564 197.23725778 -119.831044 193.80977407 -123.24769211 190.37272644 C-124.506372 189.11061929 -125.76936916 187.85280146 -127.03685951 186.59954262 C-128.76096698 184.89347095 -130.4690887 183.17287268 -132.17390442 181.44755554 C-132.9387523 180.70148443 -132.9387523 180.70148443 -133.71905166 179.94034117 C-135.08834553 178.53527355 -135.08834553 178.53527355 -137 176 C-136.8662652 171.7717042 -133.76031093 168.84263439 -131.1875 165.6875 C-130.45370117 164.77097656 -130.45370117 164.77097656 -129.70507812 163.8359375 C-128.66741032 162.54116013 -127.62680768 161.24873012 -126.58349609 159.95849609 C-124.54449849 157.43662764 -122.51989439 154.90340613 -120.49511719 152.37011719 C-119.49265821 151.116225 -118.48939358 149.86297651 -117.48535156 148.61035156 C-112.73577593 142.68334723 -108.04263458 136.71295988 -103.35888672 130.73388672 C-100.61651471 127.23472646 -97.8682673 123.74017645 -95.12036133 120.24536133 C-92.84965605 117.35679895 -90.58178015 114.46611439 -88.3203125 111.5703125 C-83.48649361 105.3879091 -78.59518761 99.2609372 -73.625 93.1875 C-68.50191946 86.92519509 -63.56375295 80.54081875 -58.67773438 74.0925293 C-54.73064402 68.90325932 -50.64315316 63.86758604 -46.4140625 58.90625 C-43.17889068 55.01148004 -40.09256802 51.0083893 -37 47 C-29.64857336 37.48956407 -22.25684653 28.02697014 -14.64331055 18.72436523 C-9.62947316 12.58340417 -4.79088098 6.31574378 0 0 Z " fill="#FEFEFE" transform="translate(281,2542)"/>
<path d="M0 0 C0.99 0.33 1.98 0.66 3 1 C1.71064081 2.14842923 0.41843421 3.29366227 -0.875 4.4375 C-1.59429687 5.07558594 -2.31359375 5.71367187 -3.0546875 6.37109375 C-5 8 -5 8 -7 9 C-5.44499019 5.18315774 -2.96404505 2.80804268 0 0 Z M-9 10 C-8.34 10.66 -7.68 11.32 -7 12 C-9.64 14.31 -12.28 16.62 -15 19 C-15.66 18.67 -16.32 18.34 -17 18 C-14.36 15.36 -11.72 12.72 -9 10 Z " fill="#E2E2E2" transform="translate(386,2303)"/>
<path d="M0 0 C0.99 0.33 1.98 0.66 3 1 C-0.96 4.465 -0.96 4.465 -5 8 C-5 5 -5 5 -2.5 2.3125 C-1.675 1.549375 -0.85 0.78625 0 0 Z M-9 10 C-8.34 10.66 -7.68 11.32 -7 12 C-9.64 14.31 -12.28 16.62 -15 19 C-15.66 18.67 -16.32 18.34 -17 18 C-14.36 15.36 -11.72 12.72 -9 10 Z " fill="#E4E4E4" transform="translate(698,1959)"/>
<path d="M0 0 C0.99 0.33 1.98 0.66 3 1 C-0.96 4.465 -0.96 4.465 -5 8 C-5 5 -5 5 -2.5 2.3125 C-1.675 1.549375 -0.85 0.78625 0 0 Z M-9 10 C-8.34 10.66 -7.68 11.32 -7 12 C-10.465 14.97 -10.465 14.97 -14 18 C-14.66 17.67 -15.32 17.34 -16 17 C-13.69 14.69 -11.38 12.38 -9 10 Z " fill="#E2E2E2" transform="translate(1010,1615)"/>
<path d="M0 0 C0.33 1.32 0.66 2.64 1 4 C0.34 4 -0.32 4 -1 4 C-1.33 4.99 -1.66 5.98 -2 7 C-3.62890625 8.60546875 -3.62890625 8.60546875 -5.5625 10.1875 C-6.20316406 10.71730469 -6.84382813 11.24710938 -7.50390625 11.79296875 C-7.99761719 12.19128906 -8.49132813 12.58960938 -9 13 C-9.66 12.67 -10.32 12.34 -11 12 C-10.37351562 11.38511719 -9.74703125 10.77023437 -9.1015625 10.13671875 C-8.28429688 9.32847656 -7.46703125 8.52023437 -6.625 7.6875 C-5.40683594 6.48673828 -5.40683594 6.48673828 -4.1640625 5.26171875 C-1.87395158 2.99990063 -1.87395158 2.99990063 0 0 Z " fill="#DFDFDF" transform="translate(1395,1190)"/>
<path d="M0 0 C0 3 0 3 -1.5 4.6875 C-1.995 5.120625 -2.49 5.55375 -3 6 C-3.66 5.67 -4.32 5.34 -5 5 C-3.35 3.35 -1.7 1.7 0 0 Z M-8 7 C-7.34 7.33 -6.68 7.66 -6 8 C-7.32 9.32 -8.64 10.64 -10 12 C-10 9 -10 9 -8 7 Z " fill="#161616" transform="translate(970,2354)"/>
<path d="M0 0 C0.66 0.33 1.32 0.66 2 1 C1.34 2.65 0.68 4.3 0 6 C-1.65 6 -3.3 6 -5 6 C-3.35 4.02 -1.7 2.04 0 0 Z " fill="#161616" transform="translate(1821,1582)"/>
<path d="M0 0 C2.31 0 4.62 0 7 0 C5.35 1.65 3.7 3.3 2 5 C1.01 4.01 0.02 3.02 -1 2 C-0.67 1.34 -0.34 0.68 0 0 Z " fill="#ECECEC" transform="translate(329,2804)"/>
<path d="M0 0 C0.33 1.32 0.66 2.64 1 4 C0.34 4 -0.32 4 -1 4 C-1.33 4.66 -1.66 5.32 -2 6 C-3.64142963 7.0409066 -5.30712215 8.04504326 -7 9 C-5.44499019 5.18315774 -2.96404505 2.80804268 0 0 Z " fill="#E4E4E4" transform="translate(1372,1216)"/>
<path d="M0 0 C1.98 1.65 3.96 3.3 6 5 C5.34 5.66 4.68 6.32 4 7 C1.525 6.01 1.525 6.01 -1 5 C-0.67 3.35 -0.34 1.7 0 0 Z " fill="#0C0C0C" transform="translate(1854,937)"/>
<path d="M0 0 C2.31 1.98 4.62 3.96 7 6 C6.34 6.66 5.68 7.32 5 8 C2.5 5.6875 2.5 5.6875 0 3 C0 2.01 0 1.02 0 0 Z " fill="#F1F1F1" transform="translate(1905,1212)"/>
<path d="M0 0 C2.31 1.98 4.62 3.96 7 6 C6.34 6.66 5.68 7.32 5 8 C2.5 5.6875 2.5 5.6875 0 3 C0 2.01 0 1.02 0 0 Z " fill="#0B0B0B" transform="translate(2062,1153)"/>
<path d="M0 0 C0.99 0.33 1.98 0.66 3 1 C0.57202689 3.42797311 -2.1299269 5.1282132 -5 7 C-3.70700306 4.11562221 -2.34058637 2.12780579 0 0 Z " fill="#E3E3E3" transform="translate(794,1853)"/>
<path d="M0 0 C0.99 0.33 1.98 0.66 3 1 C1.35 2.98 -0.3 4.96 -2 7 C-2.66 6.34 -3.32 5.68 -4 5 C-2.68 3.35 -1.36 1.7 0 0 Z " fill="#E3E3E3" transform="translate(1548,1333)"/>
<path d="M0 0 C0.99 0.33 1.98 0.66 3 1 C1.35 2.98 -0.3 4.96 -2 7 C-2.66 6.34 -3.32 5.68 -4 5 C-2.68 3.35 -1.36 1.7 0 0 Z " fill="#E3E3E3" transform="translate(1556,1325)"/>
<path d="M0 0 C0.99 0.33 1.98 0.66 3 1 C1.35 2.98 -0.3 4.96 -2 7 C-2.66 6.34 -3.32 5.68 -4 5 C-2.68 3.35 -1.36 1.7 0 0 Z " fill="#E3E3E3" transform="translate(1564,1317)"/>
<path d="M0 0 C0.99 0.33 1.98 0.66 3 1 C1.35 2.98 -0.3 4.96 -2 7 C-2.66 6.34 -3.32 5.68 -4 5 C-2.68 3.35 -1.36 1.7 0 0 Z " fill="#E3E3E3" transform="translate(1572,1309)"/>
<path d="M0 0 C0.99 0.33 1.98 0.66 3 1 C1.35 2.98 -0.3 4.96 -2 7 C-2.66 6.34 -3.32 5.68 -4 5 C-2.68 3.35 -1.36 1.7 0 0 Z " fill="#E3E3E3" transform="translate(1580,1301)"/>
<path d="M0 0 C0.33 0.99 0.66 1.98 1 3 C0.34 3 -0.32 3 -1 3 C-1.33 3.99 -1.66 4.98 -2 6 C-2.99 6.33 -3.98 6.66 -5 7 C-5 6.01 -5 5.02 -5 4 C-2.5 1.8125 -2.5 1.8125 0 0 Z " fill="#191919" transform="translate(419,2738)"/>
<path d="M0 0 C0.66 0.33 1.32 0.66 2 1 C0.71937515 2.7074998 -0.61767557 4.37373596 -2 6 C-2.66 6 -3.32 6 -4 6 C-4.33 6.66 -4.66 7.32 -5 8 C-5 5 -5 5 -2.5 2.3125 C-1.675 1.549375 -0.85 0.78625 0 0 Z " fill="#191919" transform="translate(1209,2137)"/>
<path d="M0 0 C1.98 1.65 3.96 3.3 6 5 C5.34 5.66 4.68 6.32 4 7 C2.35 5.02 0.7 3.04 -1 1 C-0.67 0.67 -0.34 0.34 0 0 Z " fill="#0C0C0C" transform="translate(1780,1079)"/>
<path d="M0 0 C1.65 1.65 3.3 3.3 5 5 C3.68 5.33 2.36 5.66 1 6 C0.34 5.01 -0.32 4.02 -1 3 C-0.67 2.01 -0.34 1.02 0 0 Z " fill="#232323" transform="translate(2034,457)"/>
</svg>
